<svg xmlns="http://www.w3.org/2000/svg" xmlns:xlink="http://www.w3.org/1999/xlink" xmlns:fi="http://pattern.flaticon.com/" width="700" height="350"><defs><g id="a" fill="#34b9f5" fill-opacity="0.4"><path d="M0 416.11c-.008 16.183 9.738 30.773 24.688 36.968s32.16 2.774 43.601-8.672l172.734-172.754a151.365 151.365 0 0 1 47.563-32.207l.367-.16a117.286 117.286 0 0 1-27.312-20.144l-24.442-24.438a117.208 117.208 0 0 1-20.312-27.68l-.223.528a151.244 151.244 0 0 1-32.191 47.52L11.703 387.82A39.762 39.762 0 0 0 0 416.108zm24.336-18.282a23.998 23.998 0 0 1 40.305 10.688 23.997 23.997 0 0 1-6.368 23.257c-9.375 9.372-24.574 9.368-33.945-.007s-9.367-24.575.008-33.946zm0 0" transform="translate(71 159) scale(.13162)"/><path d="M46.96 420.46c3.126-3.124 3.126-8.187 0-11.312s-8.19-3.125-11.312 0a7.997 7.997 0 0 0 0 11.313 7.938 7.938 0 0 0 11.313 0zm0 0M311.625 231.934c33.313 12.113 80.176 10.398 104.8-21.832l34.31-65.825a40.137 40.137 0 0 0-3.68-44.695l-50.657 50.656c-21.867 21.871-57.328 21.871-79.199 0l-11.312-11.312c-21.871-21.871-21.871-57.332 0-79.2l50.64-50.64a40.09 40.09 0 0 0-44.304-3.64l-65.985 34.48c-32.156 24.52-33.949 71.199-21.933 104.36a105.6 105.6 0 0 0 24.199 39.105l24.441 24.43a105.62 105.62 0 0 0 38.649 24.105zm0 0" transform="translate(71 159) scale(.13162)"/></g><g id="c" fill-opacity="0.2"><path d="M57.445 373.633l175.082-175.078 11.313 11.312L68.762 384.95zm0 0M28.773 391.266L.133 429.449l12.816 12.817 38.192-28.641 7.886-15.785-14.472-14.473zm0 0M286.21 223.496l.259-19.672a8.001 8.001 0 0 1 5.847-7.601l13.672-3.817L430.234 68.16c15.508-15.64 15.45-40.87-.12-56.445-15.575-15.57-40.805-15.63-56.446-.121L249.82 135.44l-4.258 14.215a7.997 7.997 0 0 1-7.406 5.696l-20.215.656-2.664 2.664 67.88 67.887zm0 0" transform="matrix(.13567 0 0 .13567 273 265)"/></g><g id="e" fill="#f5685d" fill-opacity="0.3"><path d="M264 0h-96c0 17.672 14.328 32 32 32v159.52c0 .48-24 24.48-24 24.48h24v33.602L176 264h24v33.602L176 312h24v33.602L176 360h24v40l16 64 16-64v-26.32L256 360h-24v-33.602L256 312h-24v-33.602L256 264h-24v-33.602L256 216h-24V32c17.672 0 32-14.328 32-32zm0 0M424 216h-24V32h32c0-17.672-14.328-32-32-32h-32c-17.672 0-32 14.328-32 32h32v159.52c0 .39-15.84 16.304-21.785 22.265L344 216h24v33.602L344 264h24v33.602L344 312h24v33.602L344 360h24v40l16 64 16-64v-26.32L424 360h-24v-27.434L424 312h-24v-27.434L424 264h-24v-27.434zm0 0M32 0H0v16h32v384l16 64 16-64V16h32V0zm0 0" transform="translate(256 103) scale(.12931)"/></g></defs><g fi:class="KUsePattern"><pattern id="b" width="350" height="350" patternUnits="userSpaceOnUse"><use xlink:href="#a" x="-350" y="-350"/><use xlink:href="#a" y="-350"/><use xlink:href="#a" x="350" y="-350"/><use xlink:href="#a" x="-350"/><use xlink:href="#a"/><use xlink:href="#a" x="350"/><use xlink:href="#a" x="-350" y="350"/><use xlink:href="#a" y="350"/><use xlink:href="#a" x="350" y="350"/></pattern><rect width="100%" height="100%" fill="url(#b)"/></g><g fi:class="KUsePattern"><pattern id="d" width="350" height="350" patternUnits="userSpaceOnUse"><use xlink:href="#c" x="-350" y="-350"/><use xlink:href="#c" y="-350"/><use xlink:href="#c" x="350" y="-350"/><use xlink:href="#c" x="-350"/><use xlink:href="#c"/><use xlink:href="#c" x="350"/><use xlink:href="#c" x="-350" y="350"/><use xlink:href="#c" y="350"/><use xlink:href="#c" x="350" y="350"/></pattern><rect width="100%" height="100%" fill="url(#d)"/></g><g fi:class="KUsePattern"><pattern id="f" width="350" height="350" patternUnits="userSpaceOnUse"><use xlink:href="#e" x="-350" y="-350"/><use xlink:href="#e" y="-350"/><use xlink:href="#e" x="350" y="-350"/><use xlink:href="#e" x="-350"/><use xlink:href="#e"/><use xlink:href="#e" x="350"/><use xlink:href="#e" x="-350" y="350"/><use xlink:href="#e" y="350"/><use xlink:href="#e" x="350" y="350"/></pattern><rect width="100%" height="100%" fill="url(#f)"/></g></svg>