<svg xmlns="http://www.w3.org/2000/svg" viewBox="0 0 47.5 47.5"><defs><clipPath id="a"><path d="M5 37a4 4 0 0 1-4-4V5a4 4 0 0 1 4-4h28a4 4 0 0 1 4 4v28a4 4 0 0 1-4 4H5z"/></clipPath></defs><g clip-path="url(#a)" transform="matrix(1.25 0 0 -1.25 0 47.5)"><path d="M38 0H0v38h38V0z" fill="#ffcc4d"/><path d="M33.114 18.264c1.587.45 1.587 1.147.001 1.599l-.559.153-.556.164v-.005l-2.94.89L31.382 23h-.014l.493.322.497.359c1.291 1.023 1.008 1.687-.629 1.498l-.636-.09-.632-.09h-.002l-2.979-.338 1.77 3.18.31.558c.801 1.44.281 1.963-1.159 1.162l-.559-.28-.555-.281h-.002l-2.626-1.49.34 2.948v.003l.08.633.077.637c.188 1.634-.492 1.915-1.516.623l-.394-.5-2.257-2.85-.819 2.882-.002.004-.348 1.225c-.452 1.587-1.19 1.587-1.642 0l-.174-.613-.174-.612-.82-2.885-1.862 2.35h-.002l-.395.5-.397.502c-1.023 1.289-1.704 1.007-1.515-.63l.074-.633.073-.633v-.001l.346-2.98-3.177 1.77-.556.31c-1.442.804-1.964.282-1.16-1.16l.31-.556 1.77-3.177-2.98.346-.634.073-.634.074c-1.636.189-1.918-.492-.629-1.515l.502-.397.5-.395v-.002l2.35-1.861-2.885-.821-.612-.174-.613-.174c-1.587-.452-1.587-1.19 0-1.641l1.225-.35.004-.001 2.881-.82-2.85-2.257-.499-.395c-1.292-1.024-1.01-1.705.623-1.517l.637.08.633.08h.003l2.947.34L9 10.714v-.002l-.28-.555-.297-.56c-.8-1.438-.27-1.96 1.17-1.157l.56.309 3.184 1.77L13 7.539v-.001l-.08-.631-.077-.635c-.189-1.637.491-1.918 1.515-.627l.395.5.395.5 1.862 2.35.82-2.883.001-.001.174-.613.174-.613c.452-1.586 1.106-1.586 1.557 0L20 6.112v.004l.905 2.88 1.905-2.35.416-.5.408-.5c1.022-1.29 1.71-1.01 1.521.625l-.078.637-.077.632v.003l-.34 2.948L27.284 9h.002l.557-.28.557-.295c1.441-.803 1.963-.272 1.16 1.167l-.28.56-.28.558v.002l-1.49 2.628 2.948-.34h.003l.632-.08.637-.077c1.635-.188 1.915.492.625 1.515l-.5.395-.5.395-2.35 1.947 2.88.905h.004l1.225.264z" fill="#f4900c"/><path d="M28.63 18.999c0-5.318-4.312-9.629-9.63-9.629a9.629 9.629 0 0 0-9.63 9.629A9.629 9.629 0 0 0 19 28.628c5.318 0 9.63-4.311 9.63-9.629" fill="#ffe8b6"/><path d="M38 15H0V-3h38v18z" fill="#269"/><path d="M23 9c-1.979 0-3.25.749-4 1.437C18.25 9.749 16.979 9 15 9c-3.577 0-4.842 2.448-4.895 2.553a1.001 1.001 0 0 0 1.784.905C11.934 12.376 12.722 11 15 11c2.298 0 3.08 1.4 3.112 1.46.178.328.504.524.9.533a1 1 0 0 0 .883-.546C19.92 12.4 20.701 11 23 11s3.08 1.4 3.112 1.46c.26.481.86.673 1.345.42a.993.993 0 0 0 .438-1.327C27.843 11.448 26.577 9 23 9M27 3c-1.979 0-3.25.749-4 1.437C22.25 3.749 20.979 3 19 3s-3.25.749-4 1.437C14.25 3.749 12.979 3 11 3 7.423 3 6.158 5.448 6.105 5.553a1.001 1.001 0 0 0 1.784.905C7.934 6.376 8.722 5 11 5c2.298 0 3.08 1.4 3.112 1.46.178.328.523.534.9.533a1 1 0 0 0 .883-.546C15.92 6.4 16.702 5 19 5c2.299 0 3.08 1.4 3.112 1.46.177.328.531.541.9.533a1 1 0 0 0 .883-.546C23.92 6.4 24.701 5 27 5s3.08 1.4 3.112 1.46c.26.481.861.673 1.345.42a.993.993 0 0 0 .438-1.327C31.843 5.448 30.577 3 27 3" fill="#3b88c3"/></g></svg>