<svg xmlns="http://www.w3.org/2000/svg" viewBox="0 0 47.5 47.5"><defs><clipPath id="a"><path d="M0 38h38V0H0v38z"/></clipPath><clipPath id="b"><path d="M24 24L14 14c-1-1 0-2 0-2l3-3c1-1 2 0 2 0l10 10c1 1 0 2 0 2l-3 3c-.333.334-.666.445-.963.445C24.445 24.445 24 24 24 24"/></clipPath><clipPath id="c"><path d="M0 38h38V0H0v38z"/></clipPath><clipPath id="d"><path d="M12 36L2 26c-1-1 0-2 0-2l3-3c1-1 2 0 2 0l10 10c1 1 0 2 0 2l-3 3c-.333.333-.667.444-.963.444C12.444 36.444 12 36 12 36"/></clipPath></defs><g clip-path="url(#a)" transform="matrix(1.25 0 0 -1.25 0 47.5)"><path d="M36.353 6.354L11 31.707 6.292 27 31.646 1.645c.061-.06.613-.59 1.391-.59.474 0 .93.203 1.316.59l2 2c.544.544.993 1.714 0 2.707" fill="#8899a6"/><path d="M31 2a1 1 0 0 0-.948 1.316l2 6a.996.996 0 0 0 1.264.632.998.998 0 0 0 .632-1.264l-2-6A.999.999 0 0 0 31 2M28 5a1 1 0 0 0-.948 1.316l2 6a.995.995 0 0 0 1.264.632.998.998 0 0 0 .632-1.264l-2-6A.999.999 0 0 0 28 5M25 8a1 1 0 0 0-.948 1.316l2 6a.996.996 0 0 0 1.264.632.998.998 0 0 0 .632-1.264l-2-6A.999.999 0 0 0 25 8M22 11a1 1 0 0 0-.948 1.316l2 6a1 1 0 0 0 1.896-.632l-2-6A.999.999 0 0 0 22 11M17 16a1 1 0 0 0-.949 1.316l2 6a1 1 0 1 0 1.898-.632l-2-6A1.001 1.001 0 0 0 17 16M14 19a1 1 0 0 0-.949 1.317l2 6a1 1 0 1 0 1.898-.633l-2-6A1.001 1.001 0 0 0 14 19M11 22a1 1 0 0 0-.949 1.317l2 6a1 1 0 1 0 1.898-.633l-2-6A1.001 1.001 0 0 0 11 22" fill="#66757f"/><path d="M14 12s-1 1 0 2l10 10s1 1 2 0l3-3s1-1 0-2L19 9s-1-1-2 0l-3 3z" fill="#ccd6dd"/></g><g clip-path="url(#b)" transform="matrix(1.25 0 0 -1.25 0 47.5)"><path d="M15 17l7.5-7.5L19 6l-7.292 7.292L15 17z" fill="#8899a6"/><path d="M21 23l7-7 3.5 3.5-6.479 6.479L21 23z" fill="#e1e8ed"/></g><g clip-path="url(#c)" transform="matrix(1.25 0 0 -1.25 0 47.5)"><path d="M2 24s-1 1 0 2l10 10s1 1 2 0l3-3s1-1 0-2L7 21s-1-1-2 0l-3 3z" fill="#ccd6dd"/></g><g clip-path="url(#d)" transform="matrix(1.25 0 0 -1.25 0 47.5)"><path d="M3 29l7.5-7.5L7 18l-7.292 7.292L3 29z" fill="#8899a6"/><path d="M9 35l7-7 3.5 3.5-6.479 6.479L9 35z" fill="#e1e8ed"/></g></svg>