<svg xmlns="http://www.w3.org/2000/svg" viewBox="0 0 47.5 47.5"><defs><clipPath id="a"><path d="M0 38h38V0H0v38z"/></clipPath></defs><g clip-path="url(#a)" transform="matrix(1.25 0 0 -1.25 0 47.5)"><path d="M31.415 27.414l-9 9a2.001 2.001 0 0 1-2.829-2.828l-3.859-3.86 9-9 3.859 3.86a2 2 0 0 1 2.829 2.828" fill="#e1e8ed"/><path d="M21 37H6a4 4 0 0 1-4-4V5a4 4 0 0 1 4-4h22a4 4 0 0 1 4 4v21h-9c-1 0-2 1-2 2v9z" fill="#ccd6dd"/><path d="M21 37h-2v-9a4 4 0 0 1 4-4h9v2h-9c-1 0-2 1-2 2v9zM16 29a1 1 0 0 0-1-1H7a1 1 0 0 0 0 2h8a1 1 0 0 0 1-1M16 25a1 1 0 0 0-1-1H7a1 1 0 0 0 0 2h8a1 1 0 0 0 1-1M28 21a1 1 0 0 0-1-1H7a1 1 0 0 0 0 2h20a1 1 0 0 0 1-1M28 17a1 1 0 0 0-1-1H7a1 1 0 1 0 0 2h20a1 1 0 0 0 1-1M28 13a1 1 0 0 0-1-1H7a1 1 0 1 0 0 2h20a1 1 0 0 0 1-1M28 9a1 1 0 0 0-1-1H7a1 1 0 1 0 0 2h20a1 1 0 0 0 1-1" fill="#99aab5"/><path d="M32 18s-5.906.002-5.935 0c-.291 0-.91-.174-1.254-.606l-2.329-2.929c-.643-.81-.643-2.119 0-2.93l2.329-2.929c.344-.432.963-.606 1.254-.606.019-.002 3.547 0 5.935 0v10z" fill="#66757f"/><path d="M34 18s-8.056.002-8.084 0c-.291 0-.91-.139-1.255-.485l-2.328-2.342a1.663 1.663 0 0 1 0-2.344l2.328-2.342c.345-.346.964-.487 1.255-.487.028-.002 8.084 0 8.084 0 1.104 0 2 .897 2 2.001V16a2 2 0 0 1-2 2" fill="#744eaa"/></g></svg>