<svg xmlns="http://www.w3.org/2000/svg" viewBox="0 0 47.5 47.5"><defs><clipPath id="a"><path d="M0 38h38V0H0v38z"/></clipPath></defs><g clip-path="url(#a)" transform="matrix(1.25 0 0 -1.25 0 47.5)"><path d="M5 26V13.625c0-2.042 1.093-2.484 1.093-2.484l11.574-9.099C19.488.61 19 3.625 19 3.625V15L5 26z" fill="#662113"/><path d="M33 26V13.625c0-2.042-1.063-2.484-1.063-2.484S22.17 3.474 20.349 2.042C18.526.61 19 3.625 19 3.625V15l14 11z" fill="#c1694f"/><path d="M20.29 36.5c-.754.61-1.989.61-2.743 0L5.565 26.971c-.754-.61-.754-1.607 0-2.216l12.023-9.647c.755-.609 1.99-.609 2.743 0l12.104 9.731c.753.609.753 1.606 0 2.216L20.29 36.5z" fill="#d99e82"/><path d="M19 1.25c-.552 0-1 .482-1 1.078v12.927c0 .596.448 1.078 1 1.078.553 0 1-.482 1-1.078V2.328c0-.596-.447-1.078-1-1.078" fill="#d99e82"/><path d="M29 18.164c0-1.104.104-1.646-1-2.442l-2.469-1.878c-1.104-.797-1.531-.113-1.531.992v2.961c0 .193-.026.4-.278.608C21.144 20.53 11.134 28.481 9.31 29.95l4.625 3.678c1.266-.926 10.753-8.252 14.721-11.377.198-.156.344-.328.344-.516v-3.57z" fill="#99aab5"/><path d="M28.656 22.25C24.687 25.375 15.2 32.701 13.934 33.627l-1.72-1.368-2.905-2.31c1.825-1.468 11.834-9.419 14.412-11.544a.684.684 0 0 0 .248-.371L28.903 22c-.06.087-.146.171-.247.25" fill="#ccd6dd"/><path d="M29 18.164v3.57c0 .188-.146.36-.344.516-3.968 3.125-13.455 10.451-14.721 11.377l-2.074-1.649c3.393-2.669 12.482-9.68 14.861-11.573.256-.204.278-.415.278-.608v-4.836l1 .761c1.104.796 1 1.338 1 2.442" fill="#ccd6dd"/><path d="M28.656 22.25C24.687 25.375 15.2 32.701 13.934 33.627l-2.073-1.649c3.393-2.669 12.482-9.681 14.86-11.573.038-.03.06-.059.087-.089L28.903 22c-.06.087-.146.171-.247.25" fill="#e1e8ed"/></g></svg>