<svg xmlns="http://www.w3.org/2000/svg" viewBox="0 0 47.5 47.5"><defs><clipPath id="a"><path d="M0 38h38V0H0v38z"/></clipPath></defs><g clip-path="url(#a)" transform="matrix(1.25 0 0 -1.25 0 47.5)"><path d="M28 29a6.98 6.98 0 0 1-2.015-.298c.005.1.015.197.015.298a5.998 5.998 0 1 1-11.785 1.573A5.974 5.974 0 0 1 12 31a6 6 0 1 1 0-12 5.998 5.998 0 0 1 5.785 4.428A5.975 5.975 0 0 1 20 23c.375 0 .74.039 1.096.104A6.919 6.919 0 0 1 21 22c0-3.865 3.135-7 7-7s7 3.135 7 7a7 7 0 0 1-7 7" fill="#b4c3cc"/><path d="M32 15a4.98 4.98 0 0 1-1.339-.204c.216.526.339 1.1.339 1.704a4.5 4.5 0 0 1-4.5 4.5 4.459 4.459 0 0 1-2.701-.921A6.497 6.497 0 0 1 17.5 25a6.497 6.497 0 0 1-6.131-4.357A8 8 0 1 1 9 5h23a5 5 0 0 1 5 5 5 5 0 0 1-5 5" fill="#8899a6"/></g></svg>