<svg xmlns="http://www.w3.org/2000/svg" viewBox="0 0 47.5 47.5"><defs><clipPath id="a"><path d="M0 38h38V0H0v38z"/></clipPath></defs><g clip-path="url(#a)" transform="matrix(1.25 0 0 -1.25 0 47.5)"><path d="M26.357 4.802C27.371 5.986 28.26 7.396 28.977 9h2.502a16.053 16.053 0 0 0-5.122-4.198M6.52 9h2.503c.716-1.604 1.605-3.014 2.62-4.198A16.042 16.042 0 0 0 6.52 9m5.122 24.199c-1.014-1.184-1.903-2.594-2.619-4.2H6.52a16.056 16.056 0 0 0 5.122 4.2m19.837-4.2h-2.503c-.717 1.606-1.605 3.016-2.619 4.2a16.043 16.043 0 0 0 5.122-4.2m-.513-9c-.092 2.507-.522 4.872-1.228 7h3.103a15.868 15.868 0 0 0 2.108-7h-3.983zm0-2h3.983a15.872 15.872 0 0 0-2.108-7h-3.103c.706 2.13 1.136 4.495 1.228 7M20 11v7h8.968c-.098-2.54-.563-4.916-1.317-7h-7.65zm0-7.918V9h6.8c-1.637-3.263-4.053-5.482-6.8-5.92M18 9V3.08c-2.747.438-5.164 2.657-6.8 5.92H18zm-8.969 9h8.97v-7h-7.653c-.754 2.083-1.219 4.459-1.317 7m-1.998 2H3.05a15.893 15.893 0 0 0 2.107 7h3.105c-.707-2.13-1.136-4.494-1.229-7M18 27v-7H9.031c.098 2.54.563 4.917 1.317 7H18zm0 7.92V29h-6.8c1.637 3.264 4.053 5.483 6.8 5.92M27.651 27c.754-2.083 1.22-4.46 1.317-7H20v7h7.651zm-7.65 2v5.92c2.746-.437 5.161-2.656 6.797-5.92H20zM3.05 18h3.982c.092-2.506.522-4.871 1.23-7H5.156a15.897 15.897 0 0 0-2.107 7M19 37C9.06 37 1 28.94 1 19 1 9.059 9.06 1 19 1c9.941 0 18 8.059 18 18 0 9.94-8.059 18-18 18" fill="#3b88c3"/></g></svg>