<svg xmlns="http://www.w3.org/2000/svg" viewBox="0 0 47.5 47.5"><defs><clipPath id="a"><path d="M0 38h38V0H0v38z"/></clipPath></defs><g clip-path="url(#a)" transform="matrix(1.25 0 0 -1.25 0 47.5)"><path d="M18 1a1.99 1.99 0 0 0-1.414.586l-11 11A2 2 0 0 0 5 14v21a2 2 0 0 0 3.414 1.414L18 26.829l9.586 9.585A1.998 1.998 0 0 0 31 35V14a2 2 0 0 0-.586-1.414l-11-11A1.99 1.99 0 0 0 18 1" fill="#66757f"/><path d="M18 24l11 11V14L18 3v21z" fill="#47ded4"/><path d="M7 35l11-11V3L7 14v21z" fill="#ffff87"/></g></svg>