<svg xmlns="http://www.w3.org/2000/svg" viewBox="0 0 47.5 47.5"><defs><clipPath id="a"><path d="M0 38h38V0H0v38z"/></clipPath></defs><g clip-path="url(#a)" transform="matrix(1.25 0 0 -1.25 0 47.5)"><path d="M30.879 3.121c1.166-1.166 3.02-1.22 4.12-.12s1.046 2.954-.12 4.12L13.12 28.88C11.955 30.045 10.1 30.1 9 29c-1.1-1.1-1.045-2.955.12-4.12L30.88 3.12z" fill="#f4900c"/><path d="M23 34s-6 3-11-2l-7-7s-1 1-2 0l-1-1s-1-1 0-2l4-4s1-1 2 0l1 1s1 1 0 2l-.078.078c.77.743 1.923 1.5 3.078.922l4 4s-1 3 1 5 3 2 5 2 1 1 1 1" fill="#66757f"/></g></svg>