<svg xmlns="http://www.w3.org/2000/svg" viewBox="0 0 47.5 47.5"><defs><clipPath id="a"><path d="M0 38h38V0H0v38z"/></clipPath></defs><g clip-path="url(#a)" transform="matrix(1.25 0 0 -1.25 0 47.5)"><path d="M22 19c0 2.001 3.246 3.369 5 6 2 3 2 10 2 10H9s0-7 2-10c1.753-2.631 5-3.999 5-6s-3.247-3.369-5-6C9 10 9 3 9 3h20s0 7-2 10c-1.754 2.631-5 3.999-5 6" fill="#ffe8b6"/><path d="M21.999 13c-.999 0-2.057 1-2.057 2 .057 1.713.058 2.846.058 4 0 3.22 3.034 4.562 4.9 7H13.1c1.865-2.438 4.9-3.78 4.9-7 0-1.154 0-2.288.058-4 0-1-1.059-2-2.059-2-2 0-3.594-1.784-4-3-1-3-.999-7-.999-7h16s0 4-1 7c-.405 1.216-2.001 3-4.001 3" fill="#ffac33"/><path d="M31 3a2 2 0 0 0-2-2H9a2 2 0 0 0 0 4h20a2 2 0 0 0 2-2M31 35a2 2 0 0 0-2-2H9a2 2 0 0 0 0 4h20a2 2 0 0 0 2-2" fill="#3b88c3"/></g></svg>