<svg xmlns="http://www.w3.org/2000/svg" viewBox="-14 -14 72.5 72.5"><defs><clipPath id="a"><path d="M0 38h38V0H0v38z"/></clipPath></defs><path d="M25 40h-2.5v-6.25H25V40zM12.5 33.75H15V40h-2.5v-6.25z" fill="#66757f"/><g clip-path="url(#a)" transform="matrix(1.25 0 0 -1.25 0 47.5)"><path d="M13.999 34c0-.551-2.686-1-6-1s-6 .449-6 1c0 .553 2.686 1 6 1s6-.447 6-1M27.999 34c0-.551-2.686-1-6-1s-6 .449-6 1c0 .553 2.686 1 6 1s6-.447 6-1" fill="#99aab5"/><path d="M16 28h-2v6h2v-6z" fill="#99aab5"/><path d="M16.999 34c0-.551-.896-1-2-1s-2 .449-2 1c0 .553.896 1 2 1s2-.447 2-1" fill="#66757f"/><path d="M35.999 27c0 3 0 7-1 7s-3-4-4-6 5-1 5-1" fill="#ffcc4d"/><path d="M35.999 27c0 2.21-8 3-19 3h-2c-6.627 0-12.75-5.45-12.75-11.25 0-5.799 3.75-9.75 12.75-9.75s12 4.701 12 10.5c0 .88-.138 1.731-.371 2.55 4.371.95 9.371 2.943 9.371 4.95" fill="#ffcc4d"/><path d="M5.999 24c-2.091-2.918-3.068-7.589 1.213-7.784 4.787-.216 6.787-.216 7.85 2.371 1.365 3.321.937 7.413-.276 8.196-2.32 1.497-6.695.135-8.787-2.783M22.84 24.465C24.999 21 24.91 18.304 20.999 17c-3-1-4 2-3.841 5.535.112 2.484.206 4.196 1.84 4.466 1.448.239 2.528-.427 3.842-2.536" fill="#3b88c3"/><path d="M33.18 29.886c.904-1.273 1.272-2.564.82-2.884-.45-.32-1.547.454-2.45 1.726-.903 1.273-1.271 2.564-.82 2.884.45.32 1.548-.453 2.45-1.726" fill="#99aab5"/><path d="M36.46 25.265c.909-1.28 1.28-2.575.83-2.895-.45-.32-1.553.458-2.46 1.737-.909 1.28-1.279 2.576-.829 2.896.45.32 1.552-.46 2.459-1.738" fill="#99aab5"/><path d="M34.816 27.581a1 1 0 1 0-1.632-1.158 1 1 0 0 0 1.632 1.158" fill="#66757f"/><path d="M27 5a2 2 0 0 0-2-2H5a2 2 0 0 0 0 4h20a2 2 0 0 0 2-2" fill="#99aab5"/></g></svg>