<svg xmlns="http://www.w3.org/2000/svg" viewBox="0 0 47.5 47.5"><defs><clipPath id="a"><path d="M0 38h38V0H0v38z"/></clipPath></defs><g clip-path="url(#a)" transform="matrix(1.25 0 0 -1.25 0 47.5)"><path d="M33 30H5a4 4 0 0 1-4-4V11a4 4 0 0 1 4-4h11.416c.52-.596 1.477-1 2.584-1s2.064.404 2.584 1H33a4 4 0 0 1 4 4v15a4 4 0 0 1-4 4" fill="#269"/><path d="M21 10a2 2 0 0 0-4 0v18a2 2 0 0 0 4 0V10z" fill="#292f33"/><path d="M19 11a2 2 0 0 0-2-2H5a2 2 0 0 0-2 2v18a2 2 0 0 0 2 2h12a2 2 0 0 0 2-2V11z" fill="#99aab5"/><path d="M19 11c-.999 1.998-3.657 2-4 2-2 0-5-2-8-2-1 0-2 .896-2 2v16c0 1.104 1 2 2 2 3.255 0 6 2 8 2 3 0 4-1.896 4-3V11z" fill="#e1e8ed"/><path d="M35 11a2 2 0 0 0-2-2H21a2 2 0 0 0-2 2v18a2 2 0 0 0 2 2h12a2 2 0 0 0 2-2V11z" fill="#99aab5"/><path d="M19 11c.999 1.998 3.657 2 4 2 2 0 5-2 8-2 1 0 2 .896 2 2v16c0 1.104-1 2-2 2-3.256 0-6 2-8 2-3 0-4-1.896-4-3V11z" fill="#ccd6dd"/></g></svg>