<svg xmlns="http://www.w3.org/2000/svg" viewBox="0 0 47.5 47.5"><defs><clipPath id="a"><path d="M0 38h38V0H0v38z"/></clipPath></defs><g clip-path="url(#a)" transform="matrix(1.25 0 0 -1.25 0 47.5)"><path d="M32 5a4 4 0 0 0-4-4H6a4 4 0 0 0-4 4v28a4 4 0 0 0 4 4h22a4 4 0 0 0 4-4V5z" fill="#ccd6dd"/><path d="M28 13a1 1 0 0 0-1-1H7a1 1 0 1 0 0 2h20a1 1 0 0 0 1-1M12 9a1 1 0 0 0-1-1H7a1 1 0 1 0 0 2h4a1 1 0 0 0 1-1M28 29a1 1 0 0 0-1-1H7a1 1 0 0 0 0 2h20a1 1 0 0 0 1-1M28 25a1 1 0 0 0-1-1H7a1 1 0 1 0 0 2h20a1 1 0 0 0 1-1M28 21a1 1 0 0 0-1-1H7a1 1 0 1 0 0 2h20a1 1 0 0 0 1-1M28 17a1 1 0 0 0-1-1H7a1 1 0 1 0 0 2h20a1 1 0 0 0 1-1" fill="#99aab5"/><path d="M32 30.728c-.827.535-1.837.579-2.521.022l-.792-.645-1.484-1.211-.099-.08-2.376-1.938-11.879-9.686c-.437-.357-.793-1.218-1.173-2.074-.379-.849-.969-2.851-1.443-4.39-.149-.25-1.065-1.846-.551-2.454.519-.615 2.326-.009 2.568.077 1.626.173 3.731.373 4.648.58.925.211 1.854.394 2.291.752.008.005.01.017.018.023l11.857 9.666.792.646.144.117v10.595z" fill="#66757f"/><path d="M19.145 14.474s-1.274 1.88-2.117 2.553c-.672.843-2.55 2.116-2.55 2.116-.449.446-1.192.48-1.629.043-.437-.438-.793-1.366-1.174-2.291-.47-1.146-1.276-4.154-1.768-5.752-.083-.273.517.45.504.21-.01-.187.026-.394.073-.581l-.145-.158c.056-.02.128-.042.21-.068.024-.082.05-.154.067-.21l.16.146c.186-.047.393-.084.58-.074.24.013-.483-.587-.21-.503 1.597.493 4.607 1.296 5.752 1.767.924.38 1.854.737 2.291 1.174.437.437.404 1.18-.045 1.628" fill="#d99e82"/><path d="M26.313 32.649a2.238 2.238 0 0 1 0-3.168l3.167-3.168a2.242 2.242 0 0 1 3.168 0l3.168 3.168a2.242 2.242 0 0 1 0 3.168l-3.169 3.167a2.24 2.24 0 0 1-3.167 0l-3.167-3.167z" fill="#ea596e"/><path d="M12.85 19.186l3.17-3.17 3.163-3.166 11.881 11.879-6.337 6.336-11.878-11.88z" fill="#ffcc4d"/><path d="M12.298 10.258s-2.06-1.133-2.616-.576c-.557.557.58 2.61.58 2.61s1.953-.035 2.036-2.034" fill="#292f33"/><path d="M28.688 35.025l6.336-6.336-3.96-3.96-6.337 6.336 3.96 3.96z" fill="#ccd6dd"/><path d="M27.104 33.44l6.336-6.334.793.79-6.336 6.337-.793-.792zM25.52 31.857l6.336-6.336.791.792-6.335 6.336-.792-.792z" fill="#99aab5"/></g></svg>