<svg xmlns="http://www.w3.org/2000/svg" viewBox="0 0 47.5 47.5"><defs><clipPath id="a"><path d="M0 38h38V0H0v38z"/></clipPath></defs><g clip-path="url(#a)" transform="matrix(1.25 0 0 -1.25 0 47.5)"><path d="M31 13.172a.997.997 0 0 0-1.414 0l-1.414 1.414a.997.997 0 0 0 0 1.414L31 18.828a.999.999 0 0 0 1.414 0l1.414-1.414a.997.997 0 0 0 0-1.414L31 13.172zM16 28.172a.997.997 0 0 0-1.414 0l-1.414 1.414a.997.997 0 0 0 0 1.414L16 33.828a.999.999 0 0 0 1.414 0l1.414-1.414a.997.997 0 0 0 0-1.414L16 28.172z" fill="#66757f"/><path d="M3 15c2 0 11-1 11-1s1-9 1-11-2-2-3-1-4 6-4 6-5 3-6 4-1 3 1 3M5 30.961c3 .04 25-.96 25-.96s.924-22 .962-25C31 2 28.2.997 27.1 4.998S22 22 22 22 8.043 26.416 4.993 27.102C1 28 2 30.922 5 30.962" fill="#55acee"/><path d="M28 34c2 2 7 3 8 2s0-6-2-8-19-18-19-18-6.5-4.5-8-3 3 8 3 8 16 17 18 19" fill="#ccd6dd"/><path d="M15 15s.5-.5-4-5-5-4-5-4-.5.5 4 5 5 4 5 4M30 33a3 3 0 0 0 3-3h.805c.114.315.195.645.195 1a3 3 0 0 1-3 3c-.355 0-.686-.081-1-.195V33z" fill="#66757f"/></g></svg>