<svg xmlns="http://www.w3.org/2000/svg" viewBox="0 0 47.5 47.5"><defs><clipPath id="a"><path d="M0 38h38V0H0v38z"/></clipPath></defs><g clip-path="url(#a)" transform="matrix(1.25 0 0 -1.25 0 47.5)"><path d="M17 35s0 2 2 2 2-2 2-2v-2s0-2-2-2-2 2-2 2v2zM35 21s2 0 2-2-2-2-2-2h-2s-2 0-2 2 2 2 2 2h2zM5 21s2 0 2-2-2-2-2-2H3s-2 0-2 2 2 2 2 2h2zM10.121 29.706s1.414-1.414 0-2.828-2.828 0-2.828 0l-1.415 1.414s-1.414 1.414 0 2.83c1.415 1.414 2.83 0 2.83 0l1.413-1.415zM31.121 8.707s1.414-1.414 0-2.828-2.828 0-2.828 0L26.88 7.293s-1.414 1.414 0 2.828 2.828 0 2.828 0l1.414-1.414zM30.708 26.879s-1.414-1.414-2.828 0 0 2.828 0 2.828l1.414 1.414s1.414 1.414 2.828 0 0-2.828 0-2.828l-1.414-1.414zM9.708 5.879s-1.414-1.414-2.828 0 0 2.828 0 2.828l1.414 1.414s1.414 1.414 2.828 0 0-2.828 0-2.828L9.708 5.879zM17 5s0 2 2 2 2-2 2-2V3s0-2-2-2-2 2-2 2v2zM29 19c0 5.523-4.478 10-10 10-5.523 0-10-4.477-10-10 0-5.522 4.477-10 10-10 5.522 0 10 4.478 10 10" fill="#ffac33"/></g></svg>