<svg xmlns="http://www.w3.org/2000/svg" viewBox="0 0 47.5 47.5"><defs><clipPath id="a"><path d="M0 38h38V0H0v38z"/></clipPath></defs><g clip-path="url(#a)" transform="matrix(1.25 0 0 -1.25 0 47.5)"><path d="M23 4c0-2.209-1.791-3-4-3s-4 .791-4 3l1 9c0 2.209.791 2 3 2s3 .209 3-2l1-9z" fill="#662113"/><path d="M35 20c0-8.837-7.163-12-16-12-8.836 0-16 3.163-16 12 0 8.836 9 17 16 17s16-8.164 16-17" fill="#5c913b"/><path d="M9 16c0 .553-.896 1-2 1s-2-.447-2-1c0-.553.896-1 2-1s2 .447 2 1M33 16c0 .553-.896 1-2 1s-2-.447-2-1c0-.553.896-1 2-1s2 .447 2 1M13 12c0 .553-.896 1-2 1s-2-.447-2-1c0-.553.896-1 2-1s2 .447 2 1M17 15c0 .553-.896 1-2 1s-2-.447-2-1c0-.553.896-1 2-1s2 .447 2 1M13 21c0 .553-.896 1-2 1s-2-.447-2-1c0-.553.896-1 2-1s2 .447 2 1M10 25c0 .553-.896 1-2 1s-2-.447-2-1c0-.553.896-1 2-1s2 .447 2 1M32 25c0 .553-.896 1-2 1s-2-.447-2-1c0-.553.896-1 2-1s2 .447 2 1M17 27c0 .553-.896 1-2 1s-2-.447-2-1c0-.553.896-1 2-1s2 .447 2 1M25 27c0 .553-.896 1-2 1s-2-.447-2-1c0-.553.896-1 2-1s2 .447 2 1M29 21c0 .553-.896 1-2 1s-2-.447-2-1c0-.553.896-1 2-1s2 .447 2 1M21 20c0 .553-.896 1-2 1s-2-.447-2-1c0-.553.896-1 2-1s2 .447 2 1M25 15c0 .553-.896 1-2 1s-2-.447-2-1c0-.553.896-1 2-1s2 .447 2 1M21 11c0 .553-.896 1-2 1s-2-.447-2-1c0-.553.896-1 2-1s2 .447 2 1M29 12c0 .553-.896 1-2 1s-2-.447-2-1c0-.553.896-1 2-1s2 .447 2 1" fill="#3e721d"/></g></svg>