<svg xmlns="http://www.w3.org/2000/svg" viewBox="0 0 47.5 47.5"><defs><clipPath id="a"><path d="M0 38h38V0H0v38z"/></clipPath></defs><g clip-path="url(#a)" transform="matrix(1.25 0 0 -1.25 0 47.5)"><path d="M23 4c0-2.209-1.791-3-4-3s-4 .791-4 3l1 9c0 2.209.791 2 3 2s3 .209 3-2l1-9z" fill="#662113"/><path d="M32.406 9.703C25.443 15.668 22.623 24.21 19 24.21c-3.624 0-6.444-8.54-13.406-14.506-2.925-2.507-1.532-3.957 2.48-3.667 3.575.258 6.92 1.07 10.926 1.07 4.007 0 7.351-.812 10.926-1.07 4.011-.29 5.405 1.16 2.48 3.667" fill="#5c913b"/><path d="M30.145 12.066C24.794 16.972 21.788 24 19 24c-2.784 0-5.792-7.028-11.143-11.934-4.253-3.898 5.572-4.773 11.143 0 5.57-4.773 15.396-3.898 11.145 0" fill="#3e721d"/><path d="M30.145 16.041C24.794 20.625 21.788 27.189 19 27.189c-2.784 0-5.792-6.564-11.143-11.148-4.253-3.642 5.572-4.459 11.143 0 5.57-4.459 15.396-3.642 11.145 0" fill="#5c913b"/><path d="M27.7 19.297C23.523 22.876 21.176 28 19 28c-2.175 0-4.523-5.124-8.7-8.703-3.32-2.844 4.35-3.481 8.7 0 4.348-3.481 12.02-2.844 8.7 0" fill="#3e721d"/><path d="M27.7 22.274c-4.177 3.58-6.524 8.703-8.7 8.703-2.175 0-4.523-5.124-8.7-8.703-3.32-2.844 4.35-3.48 8.7 0 4.348-3.48 12.02-2.844 8.7 0" fill="#5c913b"/><path d="M26.021 24.919c-3.37 2.888-5.266 7.024-7.02 7.024-1.756 0-3.65-4.136-7.023-7.024-2.679-2.295 3.511-2.81 7.022 0 3.51-2.81 9.701-2.295 7.021 0" fill="#3e721d"/><path d="M26.021 27.16c-3.37 2.889-5.266 7.025-7.02 7.025-1.756 0-3.65-4.136-7.023-7.024-2.679-2.295 3.511-2.81 7.022 0 3.51-2.81 9.701-2.295 7.021 0" fill="#5c913b"/><path d="M24.343 30.46c-2.564 2.197-4.007 5.345-5.343 5.345-1.335 0-2.778-3.148-5.343-5.345-2.038-1.747 2.672-2.138 5.343 0 2.67-2.138 7.382-1.747 5.343 0" fill="#3e721d"/><path d="M24.343 31.655C21.779 33.852 20.336 37 19 37c-1.335 0-2.778-3.148-5.343-5.345-2.038-1.747 2.672-2.138 5.343 0 2.67-2.138 7.382-1.747 5.343 0" fill="#5c913b"/></g></svg>