<svg xmlns="http://www.w3.org/2000/svg" viewBox="0 0 47.5 47.5"><defs><clipPath id="a"><path d="M5 37a4 4 0 0 1-4-4V5a4 4 0 0 1 4-4h28a4 4 0 0 1 4 4v28a4 4 0 0 1-4 4H5z"/></clipPath></defs><g clip-path="url(#a)" transform="matrix(1.25 0 0 -1.25 0 47.5)"><path d="M38 0H0v38h38V0z" fill="#ffcc4d"/><path d="M33.114 20.264c1.587.45 1.587 1.147.001 1.599l-.559.153-.556.164v-.005l-2.94.89L31.382 25h-.014l.493.322.497.359c1.291 1.023 1.008 1.687-.629 1.498l-.636-.09-.632-.09h-.002l-2.979-.338 1.77 3.18.31.558c.801 1.44.281 1.963-1.159 1.162l-.559-.28-.555-.281h-.002l-2.626-1.49.34 2.948v.003l.08.633.077.637c.188 1.634-.492 1.915-1.516.623l-.394-.5-2.257-2.85-.819 2.882-.002.004-.348 1.225c-.452 1.587-1.19 1.587-1.642 0l-.174-.613-.174-.612-.82-2.885-1.862 2.35h-.002l-.395.5-.397.502c-1.023 1.289-1.704 1.007-1.515-.63l.074-.633.073-.633v-.001l.346-2.98-3.177 1.77-.556.31c-1.442.804-1.964.282-1.16-1.16l.31-.556 1.77-3.177-2.98.346-.634.073-.634.074c-1.636.189-1.918-.492-.629-1.515l.502-.397.5-.395v-.002l2.35-1.861-2.885-.821-.612-.174-.613-.174c-1.587-.452-1.587-1.19 0-1.641l1.225-.35.004-.001 2.881-.82-2.85-2.257-.499-.395c-1.292-1.024-1.01-1.705.623-1.517l.637.08.633.08h.003l2.947.34L9 12.714v-.002l-.28-.555-.297-.56c-.8-1.438-.27-1.96 1.17-1.157l.56.309 3.184 1.77L13 9.539v-.001l-.08-.631-.077-.635c-.189-1.637.491-1.918 1.515-.627l.395.5.395.5 1.862 2.35.82-2.883.001-.001.174-.613.174-.613c.452-1.586 1.106-1.586 1.557 0L20 8.112v.004l.905 2.88 1.905-2.35.416-.5.408-.5c1.022-1.29 1.71-1.01 1.521.625l-.078.637-.077.632v.003l-.34 2.948L27.284 11h.002l.557-.28.557-.295c1.441-.803 1.963-.272 1.16 1.167l-.28.56-.28.558v.002l-1.49 2.628 2.948-.34h.003l.632-.08.637-.077c1.635-.188 1.915.492.625 1.515l-.5.395-.5.395-2.35 1.947 2.88.905h.004l1.225.264z" fill="#f4900c"/><path d="M28.63 21c0-5.32-4.312-9.63-9.63-9.63A9.628 9.628 0 0 0 9.37 21 9.629 9.629 0 0 0 19 30.629c5.318 0 9.63-4.311 9.63-9.63" fill="#ffe8b6"/><path d="M11-7v29l4 4h2l4-4V-7H11zM34 18c0 1-1 1-1 1h-7s-1 0-1-1V-7h9v25z" fill="#485359"/><path d="M29 12c0 1-1 1-1 1h-8c-1 0-1-1-1-1V-7h10v19zM7 15s0 1-1 1H1V-7h6v22z" fill="#292f33"/><path d="M13 9s0 1-1 1H6s-1 .001-1-1V-7h8V9zM32 3s0 1 1 1h4V-7h-5V3z" fill="#292f33"/><path d="M11 6H9v2h2V6zM9 2H7v2h2V2zM19 18h-2v2h2v-2zM19 14h-2v2h2v-2zM17 10h-2v2h2v-2zM27 9h-2v2h2V9zM25 5h-2v2h2V5zM32 15h-2v2h2v-2zM32 11h-2v2h2v-2z" fill="#ffcc4d"/></g></svg>