<svg xmlns="http://www.w3.org/2000/svg" viewBox="0 0 47.5 47.5"><defs><clipPath id="a"><path d="M0 38h38V0H0v38z"/></clipPath></defs><g clip-path="url(#a)" transform="matrix(1.25 0 0 -1.25 0 47.5)"><path d="M23.855 36.242l-14.98-6.266 12.537-9.733c2.633-2.224 6.378-2.937 9.77-1.518 4.826 2.018 7.096 7.577 5.072 12.413-2.021 4.838-7.574 7.123-12.398 5.104M13.893 18.318L3.05 26.716 1.137 13.47c-.534-2.855.502-5.902 2.958-7.802A8.002 8.002 0 0 1 15.32 7.093a8.002 8.002 0 0 1-1.426 11.225M29.232 11.303l-8.156 4.689-.033-9.222c-.088-2 .904-3.981 2.75-5.041a5.46 5.46 0 0 1 7.478 2.05c1.5 2.645.59 6.014-2.039 7.524" fill="#5dadec"/></g></svg>