<svg xmlns="http://www.w3.org/2000/svg" viewBox="0 0 47.5 47.5"><defs><clipPath id="a"><path d="M0 38h38V0H0v38z"/></clipPath></defs><g clip-path="url(#a)" transform="matrix(1.25 0 0 -1.25 0 47.5)"><path d="M37 22a8 8 0 0 1-7.221 7.96C28.884 33.987 25.297 37 21 37c-4.971 0-9-3.561-9-8.531 0-1.157.25-2.906 1.121-3.785C9.859 24.5 5.094 24.4 1 24.985c0 0 4.816-3.83 15.357-3.985-.15-.313-.253-1.43-.306-1.786-.248-.003-.594-.009-1.051-.009C7 19.205 1 20 1 20s3-3.234 15.406-4.106C16 15.766 16 14 16 14c-8 0-15 1-15 1 3.362-2.802 6.724-4.033 9.03-4.574-.011-.142-.03-.281-.03-.426 0-3.313 2.687-5 6-5 .487 0 .958.064 1.412.174A8.983 8.983 0 0 1 25 1a9 9 0 0 1 9 9 8.945 8.945 0 0 1-1.427 4.851A7.99 7.99 0 0 1 37 22" fill="#bdddf4"/></g></svg>