<svg width="400" height="94.666" xmlns="http://www.w3.org/2000/svg"><g fill-rule="evenodd"><path d="M84.879.689c-.163.058-.708.199-1.212.313-1.403.316-4.531 1.767-5 2.319-.046.053-.513.417-1.037.807-.524.39-1.041.877-1.149 1.082-.108.205-.43.636-.716.957-.756.849-2.079 3.591-2.292 4.75-.101.55-.223 1.112-.271 1.25-.123.353-.168 4.048-.051 4.25.054.091.182.662.286 1.267.194 1.123 1.155 3.247 2.078 4.587.287.418.418.751.319.812-.322.199-.164.417.303.417.501 0 1.863 1.024 1.863 1.401 0 .448 4.646 2.525 6.007 2.685.5.059 1.022.156 1.16.214.137.059 1.181.109 2.319.112 1.477.003 2.089.063 2.137.208.047.14.178.101.421-.125.194-.181.559-.328.811-.328 2.549 0 8.09-3.445 9.517-5.917.27-.467.398-.732 1.094-2.25.146-.321.333-.629.415-.685.081-.056.14-.15.131-.209-.074-.493.248-1.495.504-1.562.239-.062.262-.136.117-.369-.104-.167-.131-.494-.063-.766.093-.37.153-.422.272-.234.099.157.153-.286.153-1.258 0-.922-.056-1.412-.146-1.27-.169.266-.349-.165-.437-1.044-.092-.912-.451-2.27-.601-2.27-.079 0-.144-.192-.144-.426 0-.28.066-.386.192-.308.119.074.147.046.074-.073a.49.49 0 0 0-.379-.193c-.182 0-.232-.105-.168-.35.1-.381-.182-1.15-.422-1.15-.082 0-.033.167.11.371.392.559.311.766-.116.294C99.902 6.83 99.129 5.346 99.917 6c.172.143.25.15.25.02 0-.189-.197-.246-.69-.199-.322.032-2.544-2.031-2.373-2.203.065-.065-.005-.118-.156-.118s-1.002-.41-1.891-.91c-.889-.501-2.034-1.033-2.545-1.182a21.541 21.541 0 0 1-1.29-.413c-.771-.303-5.69-.54-6.343-.306M13.917 2.203c-3.93.608-7.126 1.977-9.271 3.971-.31.287-.618.572-.685.632-.478.432-1.519 1.836-1.788 2.414-.18.383-.479.922-.665 1.197-.187.275-.34.631-.34.791-.001.161-.076.292-.168.292-.092 0-.167.188-.167.417 0 .229-.075.416-.166.416-.092 0-.167.267-.167.594 0 .353-.067.551-.167.49-.215-.134-.222.961-.007 1.176.238.237.265 2.627.032 2.704-.235.079-.255.978-.025 1.12.092.056.167.365.167.686 0 .346.068.542.167.48.094-.058.166.079.166.314 0 .229.082.467.183.529.1.062.148.29.107.505-.041.216-.021.359.045.318.193-.119 1.158 1.553 1.197 2.074.023.295.113.444.24.396.25-.096.798.699.649.942-.146.236.312.672.705.672.174 0 .479.174.679.386.373.398.489.713.195.531-.248-.153-.201.072.072.345.273.273.498.32.345.072-.057-.092-.024-.167.073-.167.098 0 .177.075.177.167 0 .091.145.166.321.166.177 0 .421.095.542.211.121.115.427.301.679.413.252.111.458.279.458.373 0 .093.131.171.292.173.249.002.255.026.041.165-.195.127-.159.156.167.133.336-.023 2.433.536 3.667.977.137.049.587.118.999.154.412.035.775.14.806.233.093.28 2.735.206 3.337-.095.337-.168.707-.223 1.026-.153.313.069.498.043.498-.07 0-.099.225-.18.5-.18s.5-.075.5-.167c0-.092.132-.169.292-.172.678-.013 2.317-.718 3.868-1.664.691-.422 1.115-.592 1.187-.476.075.121.146.125.217.011.058-.094.011-.204-.104-.245-.132-.046.007-.271.374-.604.803-.73 1.589-1.296 1.421-1.024-.094.152-.076.186.053.107.106-.066.192-.261.192-.433 0-.173.137-.412.303-.532.167-.12.448-.48.625-.801.177-.321.362-.621.411-.667.049-.046.273-.477.498-.958.225-.482.461-.875.526-.875.064 0 .168-.338.229-.75.062-.413.179-.75.261-.75.081 0 .147-.3.147-.667 0-.367.075-.667.167-.667.101 0 .167-.722.167-1.833s-.066-1.833-.167-1.833c-.092 0-.167-.3-.167-.667 0-.367-.075-.667-.166-.667-.092 0-.167-.112-.167-.25 0-.137.089-.25.198-.25.109 0 .034-.153-.167-.339-.445-.415-.49-.859-.073-.72.184.061.126-.049-.156-.297-.554-.487-1.036-1.586-.748-1.704.108-.044.029-.086-.175-.093-.242-.009-.467-.201-.65-.555-.153-.298-.424-.645-.603-.77a.577.577 0 0 1-.251-.61c.049-.254.004-.355-.131-.303-.113.043-.72-.383-1.349-.948-2.463-2.208-5.025-3.344-8.615-3.821-1.437-.191-1.437-.191-2.863.03M88.43 7.064c.074.218.144.253.23.114.153-.248 1.673.621 1.673.956 0 .125.084.167.195.098.134-.082.159-.026.08.181-.093.241-.07.263.113.111.245-.203.946.365.724.587-.187.186.244.556.647.556 1.458 0 2.282 3.58 1.637 7.103-.15.814-.358 1.967-.463 2.563l-.191 1.084-.996-.023c-.548-.013-1.277-.032-1.621-.042-.892-.027-.776-.352.125-.352.413 0 .75-.075.75-.167 0-.261-1.135-.195-1.571.091-.335.219-.628.233-1.953.088-3.596-.391-4.753-.544-5.237-.69-.282-.086-.867-.155-1.299-.155-.64 0-.778-.052-.739-.275.027-.151-.055-.31-.182-.355-.138-.048-.186-.006-.118.103.167.271-.64.422-1.185.221-.465-.172-.465-.172-.077-.29.214-.064.313-.165.219-.223-.179-.11.716-2.05.993-2.154.082-.03.149-.161.149-.291 0-.13.06-.236.133-.236.073 0 .272-.338.442-.75.17-.413.367-.75.438-.75.071 0 .33-.41.575-.91.244-.5.55-.997.678-1.104.129-.106.234-.286.234-.398 0-.112.15-.377.334-.588.183-.212.333-.294.333-.183 0 .111.068.16.151.109.083-.051.116-.227.073-.391-.045-.172.102-.492.349-.759.235-.253.427-.577.427-.719 0-.16.094-.224.245-.166.134.052.296.011.359-.091.069-.112.038-.138-.078-.066-.467.288.428-1.253.974-1.679.138-.107.251-.257.252-.334.002-.076.178-.338.393-.582l.39-.444.644.444c.354.244.692.585.751.758m-68.651 1.67c-.049.129.055.366.232.526.343.31.433.985.156 1.157-.22.135-.216 1.083.003 1.083.301 0 .582.815.359 1.038-.279.279-.242 1.106.064 1.412.203.203.234.457.145 1.173-.071.569-.05.954.057 1.021.238.148.292.662.146 1.4-.09.457-.053.727.134.995.291.415.344 1.221.092 1.378-.092.056-.167.365-.167.686 0 .386.063.545.185.469.201-.124.475.204.479.575.003.24.022.241-3.331-.157-.687-.082-2.225-.271-3.416-.421-1.192-.149-2.566-.295-3.054-.324-.487-.028-1.005-.097-1.15-.153-.145-.055-.943-.142-1.773-.193-1.706-.103-2.241-.286-1.932-.659.108-.13.275-.188.37-.129.098.061.124.027.059-.078-.191-.309.414-1.902.756-1.992.169-.044.307-.151.307-.237s-.075-.111-.167-.054c-.091.057-.166-.051-.166-.24s.075-.343.166-.343c.092 0 .167-.117.167-.26 0-.146.08-.211.183-.147.114.071.156-.003.112-.199-.081-.36.233-1.071.611-1.385a.795.795 0 0 0 .261-.53c0-.172.075-.313.166-.313.092 0 .169-.093.173-.208.01-.4.651-1 .978-.914.238.062.338-.026.407-.356.142-.69 2.686-2.127 5.026-2.84.366-.112.816-.265 1-.339 1.378-.561 2.487-.768 2.362-.442M8.5 19.833c0 .092.112.167.25.167.137 0 .25-.075.25-.167 0-.091-.113-.166-.25-.166-.138 0-.25.075-.25.166m6.042.782c.16.042.423.042.583 0 .16-.042.029-.076-.292-.076s-.452.034-.291.076m72.752 8.003c.207.04.507.038.666-.003.16-.042-.01-.075-.377-.073-.366.002-.497.036-.289.076m-.377 37.381c-1.522.138-3.225.491-3.351.696-.047.076-.219.138-.381.138s-.664.188-1.115.416c-.451.229-.942.417-1.091.417-.149 0-.369.118-.488.262-.337.406-1.105.747-1.439.638-.229-.074-.247-.058-.074.065.184.132.135.257-.25.644-.94.944-1.91 1.735-2.033 1.659-.069-.043-.137.068-.15.247-.014.178-.179.52-.367.76-.546.693-1.614 3.058-1.835 4.059a26.175 26.175 0 0 1-.35 1.417c-.168.567-.25 3.468-.105 3.703.052.085.211.711.353 1.392a12.334 12.334 0 0 0 1.885 4.458c.418.608.703 1.2.674 1.401-.029.2.056.378.2.418.222.062.222.05 0-.107-.138-.097-.187-.178-.109-.179.229-.005 1.148.68 1.772 1.32.684.7 1.672 1.271 4.337 2.507.244.113 2.247.571 3.583.82.367.068 1.066.107 1.553.086.634-.027.912.029.976.197.062.16.332.225.864.205l.774-.03-.708-.063c-.976-.088-.889-.325.166-.453 1.292-.157 3.105-.596 3.959-.958 1.125-.478 2.572-1.191 2.666-1.313.046-.059.325-.232.621-.383.78-.4 3.574-3.241 3.954-4.021.179-.367.447-.817.597-1 .149-.184.409-.802.576-1.375.168-.573.376-1.042.463-1.042.087 0 .115-.113.062-.252-.148-.384.075-1.327.248-1.053.09.141.142-.031.143-.473.002-.382-.069-.719-.158-.75-.238-.082-.268-2.19-.032-2.269.106-.035.193-.287.193-.56 0-.278-.071-.452-.162-.396-.197.122-.412-.648-.278-.997.053-.137.031-.25-.05-.25-.173 0-.704-1.487-.594-1.665.042-.068-.072-.258-.254-.423-.181-.164-.517-.68-.746-1.147-.229-.466-.66-1.124-.958-1.461a35.326 35.326 0 0 1-1.002-1.19c-.254-.318-.704-.694-1-.835a4.278 4.278 0 0 1-.907-.601c-.203-.19-.411-.345-.462-.345-.051 0-.407-.198-.791-.44-2.344-1.479-5.939-2.205-9.379-1.894m-74.175.681c-.052.084-.259.154-.46.156-.399.003-1.54.367-1.723.55-.063.063-.236.114-.385.114-.305 0-2.451 1.078-2.854 1.434-.145.128-.302.233-.349.233-.135 0-1.267.995-2.321 2.041-.53.527-1.087.959-1.235.959-.19 0-.241.094-.171.315.112.352-.289.851-.683.851-.137 0-.235.131-.219.292.061.603-.016.875-.249.875a.468.468 0 0 0-.359.192c-.074.12-.046.148.074.074.126-.078.192.028.192.307 0 .235-.075.427-.167.427-.091 0-.166.192-.166.427 0 .241-.072.381-.167.323-.098-.06-.172.126-.178.448-.01.471-.035.503-.166.219-.104-.223-.122.011-.056.708.067.706.04 1.042-.084 1.042-.119 0-.183.521-.183 1.5 0 1.003.063 1.5.188 1.5.13 0 .154.262.076.848-.076.573-.056.813.062.74.109-.068.174.118.174.495 0 .36.068.561.167.5.092-.057.167.008.167.143 0 .135-.094.284-.209.33-.114.046-.039.09.167.097.295.011.374.111.372.472-.002.357-.038.403-.164.208-.139-.216-.162-.212-.164.03-.001.155.148.328.331.387.183.058.343.157.355.219.011.063.039.285.06.494.022.209.1.434.172.5.073.066.086-.011.028-.172-.178-.495.014-.328.72.627.373.506.657 1.04.63 1.187-.033.185.096.285.417.321.308.035.793.388 1.436 1.045.534.546 1.131 1.043 1.327 1.105.195.062.355.183.355.268 0 .086.095.156.211.156.115 0 .584.248 1.041.552 3.471 2.306 10.202 2.255 14.823-.112 1.312-.672 1.782-1.021 3.234-2.399.41-.389.807-.708.882-.708.075 0 .182-.184.238-.408.11-.437.842-1.028.934-.753.03.09.149.013.264-.171.116-.185.153-.327.083-.316a.99.99 0 0 1-.261.001c-.148-.022.887-2.069 1.091-2.159.07-.03.127-.19.127-.354 0-.165.104-.386.232-.492.133-.111.194-.345.141-.547-.069-.261-.036-.318.125-.219.174.108.195-.037.106-.711-.107-.804.113-1.39.28-.748.043.161.085-.606.094-1.706.01-1.205-.042-1.909-.13-1.769-.117.185-.183.162-.331-.115-.122-.228-.128-.381-.018-.449.092-.057.167-.254.167-.437s-.075-.287-.166-.23c-.155.095-.24-.231-.182-.696a.342.342 0 0 0-.147-.302c-.094-.058-.171-.293-.171-.522 0-.235-.073-.372-.167-.314-.092.057-.167-.007-.167-.143 0-.135.057-.277.125-.315.069-.039.028-.046-.092-.016-.119.03-.346-.226-.504-.569-.425-.922-1.043-1.835-2.003-2.957-.819-.956-1.079-1.405-.667-1.15.117.072.148.045.078-.067-.063-.101-.212-.147-.332-.101-.12.046-.314-.032-.432-.174-.117-.142-.304-.258-.414-.258-.11 0-.377-.187-.592-.416-.215-.229-.461-.417-.545-.417-.084 0-.353-.135-.596-.301-.733-.498-2.818-1.387-4.085-1.74-1.302-.364-6.844-.584-7.032-.279m4.892 7.097c.211.133.425.351.476.483.051.132.234.24.408.24.173 0 .315.056.316.125 0 .069.336.35.746.625.626.419 1.148 1.18.561.817-.11-.068-.148-.046-.087.052.057.093.277.137.488.096.265-.05.548.085.919.439.295.282.622.513.726.513.401 0 .986.908.663 1.027-.083.031-.031.166.115.301.235.216.253.212.155-.042-.077-.203-.026-.286.177-.284.454.004.754.268.785.691.016.214.135.393.265.398.402.012-.417 1.678-1.107 2.251-.134.11-.441.566-.684 1.012-.243.447-.505.812-.582.812-.078 0-.146.094-.153.209-.021.36-1.574 2.365-1.999 2.581-.223.113-.312.207-.197.208.115.001.208.085.208.187 0 .101-.116.14-.258.085-.15-.057-.216-.029-.156.067.172.279-1.082 2.189-1.395 2.124-.151-.031-.266-.173-.255-.315.013-.179-.094-.236-.353-.186-.243.046-.519-.078-.802-.361-.238-.238-.497-.432-.576-.432-.079 0-.374-.244-.655-.542-.605-.64-.783-.784-1.646-1.334-1.005-.641-2.078-2.025-1.691-2.182.114-.046.073-.088-.095-.096-.413-.018-1.013-.611-.904-.893.049-.128.014-.339-.078-.468-.127-.178-.142-.154-.062.098.078.248-.026.196-.401-.199-.278-.293-.506-.609-.506-.702 0-.094-.225-.427-.5-.74s-.5-.648-.5-.744c0-.096-.094-.273-.208-.394-.491-.519-.981-2.089-.59-1.889.118.061.046-.039-.16-.221-.558-.492-.464-.78.333-1.022.39-.119 1.011-.349 1.382-.512.37-.162.91-.333 1.198-.378.289-.046.623-.144.743-.219.548-.342 4.921-1.697 5.219-1.617.183.049.506.198.717.331m75.338.078c.031.08.256.138.5.128l.445-.016-.417-.134c-.372-.119-.349-.135.208-.15.344-.009.631.04.639.109.007.068.043.312.078.541.349 2.237.436 2.818.486 3.25a73 73 0 0 0 .233 1.667l.337 2.25c.09.596.209 1.47.267 1.943l.104.86-.551.118c-.303.064-.626.17-.718.235-.091.064-.504.217-.916.338-.928.273-1.557.48-4.904 1.61-3.664 1.237-3.213 1.48-4.512-2.437a22.925 22.925 0 0 0-.711-1.818 15.96 15.96 0 0 1-.655-1.75c-.233-.793-.35-1.093-1.014-2.596-.278-.63-.554-1.583-.588-2.037-.011-.156-.055-.25-.096-.209-.104.105-.481-.646-.4-.799.036-.068.357-.125.712-.125s.841-.074 1.079-.164c.308-.117.529-.105.766.041.273.17.361.162.489-.043.117-.188.43-.242 1.245-.216.607.02 1.089-.036 1.089-.125 0-.087.558-.159 1.24-.159.682 0 1.281-.067 1.332-.148.05-.082.636-.153 1.301-.159.666-.006 1.435-.082 1.71-.169.521-.166 1.127-.084 1.222.164m-7.014 19.763c.207.039.544.039.75 0 .207-.04.038-.073-.375-.073-.412 0-.581.033-.375.073" fill="#939393"/><path d="M143 18.643c0 .079-.994.197-2.208.262-1.215.065-2.28.188-2.367.273-.087.086-.593.155-1.125.155-.533 0-.967.075-.967.167 0 .094-.472.167-1.083.167s-1.083.072-1.083.166c0 .092-.413.167-.917.167s-.917.066-.917.147c0 .081-.712.2-1.583.265-.871.066-1.583.187-1.583.27 0 .083-.3.151-.667.151-.367 0-.667.075-.667.167 0 .092-.336.167-.746.167-.658 0-.76.049-.852.416-.057.23-.171.417-.253.417-.082 0-.149.15-.149.333 0 .184-.075.334-.166.334-.092 0-.167.145-.167.322a.478.478 0 0 1-.32.423c-.214.068-.357.32-.431.762-.061.362-.18.659-.264.659-.083 0-.152.113-.152.25 0 .138-.075.25-.166.25-.092 0-.167.15-.167.334 0 .183-.075.333-.167.333-.091 0-.166.113-.166.25s-.069.25-.152.25c-.084 0-.203.3-.265.667-.062.366-.181.666-.265.666-.083 0-.152.113-.152.25 0 .138-.075.25-.166.25-.092 0-.167.134-.167.297 0 .163-.15.405-.333.537-.184.132-.334.336-.334.453 0 .117-.075.213-.166.213-.092 0-.167.15-.167.334 0 .185-.111.333-.25.333-.138 0-.25.067-.25.148 0 .082-.263.197-.583.258-.321.06-.584.181-.584.268 0 .088-.15.159-.333.159-.183 0-.333.075-.333.167 0 .092-.15.167-.334.167-.183 0-.333.075-.333.166 0 .092-.112.167-.25.167s-.25.067-.25.148c0 .082-.263.197-.583.258-.321.06-.584.181-.584.268 0 .088-.15.159-.333.159-.183 0-.333.075-.333.167 0 .092-.15.167-.334.167-.183 0-.333.075-.333.166 0 .092-.08.167-.179.167-.341 0-.654.479-.654 1 0 .604.325 1 .821 1 .19 0 .345.075.345.167 0 .091.15.166.334.166.183 0 .333.075.333.167 0 .092.188.167.417.167.229 0 .416.066.416.148 0 .081.263.197.584.257.32.061.583.181.583.269 0 .087.225.159.5.159s.5.075.5.167c0 .091.112.166.25.166s.25.075.25.167c0 .092.225.167.5.167s.5.069.5.153c0 .084.24.206.532.27 1.011.222.968-.158.968 8.565 0 5.23.058 8.012.167 8.012.101 0 .166.722.166 1.833 0 1.008.065 1.833.144 1.833.078 0 .197 1.069.262 2.375.066 1.307.189 2.4.274 2.431.084.03.154.387.154.792 0 .404.075.736.166.736.092 0 .167.337.167.75 0 .412.075.75.167.75.091 0 .166.337.166.75 0 .412.066.75.145.75.08 0 .197.45.259 1s.184 1 .271 1c.087 0 .159.3.159.666 0 .367.075.667.166.667.092 0 .167.112.167.25 0 .185.194.25.75.25.689 0 .75-.034.75-.417 0-.229.066-.416.147-.416.082 0 .199-.413.262-.917s.185-.917.27-.917c.085 0 .154-.262.154-.583 0-.321.075-.583.167-.583.092 0 .167-.225.167-.5s.075-.5.166-.5c.092 0 .167-.338.167-.75 0-.413.067-.75.149-.75.082 0 .202-.675.268-1.5.065-.825.185-1.5.267-1.5.082 0 .149-.45.149-1 0-.556.074-1 .167-1 .099 0 .167-.611.167-1.5s.068-1.5.166-1.5c.106 0 .167-1.306.167-3.584 0-2.277.061-3.583.167-3.583.104 0 .166-1.028.166-2.75s-.062-2.75-.166-2.75c-.106 0-.167-1.161-.167-3.15V38.2l2.083-.12c1.146-.066 2.084-.186 2.084-.267 0-.08.562-.146 1.25-.146.722 0 1.25-.071 1.25-.167 0-.093.444-.167 1-.167.555 0 1-.074 1-.166 0-.094.472-.167 1.083-.167.596 0 1.083-.068 1.083-.15 0-.083.863-.204 1.917-.27 1.054-.066 1.917-.186 1.917-.267 0-.08.412-.146.916-.146s.917-.075.917-.167c0-.092.337-.167.75-.167.412 0 .75-.075.75-.166 0-.092.262-.167.583-.167h.584v43.167h7.333V66.464l1.708.12c.94.067 1.734.187 1.764.268.031.082.537.148 1.125.148.602 0 1.07.073 1.07.167 0 .091.412.166.916.166s.917.075.917.167c0 .095.495.167 1.153.167.75 0 1.176.07 1.219.2.099.297 12.987.305 13.086.008.042-.125.365-.208.806-.208.405 0 .736-.075.736-.167 0-.092.338-.167.75-.167s.75-.075.75-.166c0-.092.225-.167.5-.167s.5-.066.5-.148c0-.081.338-.198.75-.26s.75-.183.75-.269c0-.086.188-.156.417-.156.229 0 .416-.075.416-.167 0-.092.134-.167.297-.167.163 0 .403-.147.532-.327.13-.18.465-.377.745-.439.28-.061.631-.252.779-.423.148-.171.321-.311.383-.311s.293-.168.514-.375l.617-.575c.424-.393.633-.706.633-.948 0-.135.15-.293.334-.352.183-.058.333-.25.333-.428 0-.177.075-.322.167-.322.091 0 .166-.15.166-.333 0-.183.072-.333.159-.333.088 0 .209-.263.269-.584.06-.32.176-.583.258-.583.081 0 .148-.113.148-.25 0-.138.075-.25.166-.25.092 0 .167-.225.167-.5s.075-.5.167-.5c.091 0 .166-.256.166-.569 0-.314.074-.595.163-.625.09-.031.213-.712.275-1.514.061-.802.175-1.459.254-1.459.078 0 .142-1.95.142-4.333s-.064-4.333-.142-4.333c-.079 0-.193-.657-.254-1.459-.062-.802-.185-1.483-.275-1.514-.089-.03-.163-.311-.163-.625 0-.313-.075-.569-.166-.569-.092 0-.167-.15-.167-.333 0-.184-.075-.334-.167-.334-.091 0-.166-.187-.166-.416 0-.229-.067-.417-.148-.417-.082 0-.198-.263-.258-.583-.06-.321-.181-.584-.269-.584-.087 0-.159-.133-.159-.296 0-.163-.15-.405-.333-.537-.183-.132-.333-.302-.333-.378 0-.075-.188-.325-.417-.554-.229-.229-.417-.562-.417-.739 0-.213-.155-.361-.458-.436-.445-.11-.705-.334-1.194-1.031-.129-.184-.485-.382-.791-.439-.306-.058-.557-.176-.557-.264 0-.087-.15-.159-.333-.159-.183 0-.333-.075-.333-.167 0-.091-.15-.166-.334-.166-.183 0-.333-.075-.333-.167 0-.092-.113-.167-.25-.167-.138 0-.25-.07-.25-.156s-.338-.207-.75-.269c-.412-.062-.75-.179-.75-.26 0-.082-.263-.148-.583-.148-.321 0-.584-.075-.584-.167 0-.091-.3-.166-.666-.166-.367 0-.667-.075-.667-.167 0-.092-.36-.167-.8-.167-.44 0-.894-.093-1.008-.208-.294-.293-16.223-.282-16.321.011-.047.141-.807.197-2.635.197-1.602 0-2.569.063-2.569.167 0 .105-1.056.167-2.834.167-1.777 0-2.833.062-2.833.166 0 .098-.583.167-1.417.167h-1.416v1.5h-.75c-.413 0-.75-.075-.75-.167 0-.091-.338-.166-.75-.166-.413 0-.75-.075-.75-.167 0-.092-.338-.167-.75-.167-.413 0-.75-.07-.75-.155 0-.085-.6-.207-1.334-.271-.733-.064-1.333-.182-1.333-.262 0-.08-.338-.145-.75-.145-.413 0-.75-.075-.75-.167 0-.091-.338-.166-.75-.166-.413 0-.75-.075-.75-.167 0-.092-.263-.167-.583-.167-.321 0-.584-.067-.584-.149 0-.082-.675-.202-1.5-.267-.825-.066-1.5-.186-1.5-.268 0-.082-.337-.149-.75-.149-.412 0-.75-.075-.75-.167 0-.091-.3-.166-.666-.166-.367 0-.667-.075-.667-.167 0-.092-.338-.167-.75-.167-.413 0-.75-.075-.75-.166 0-.092-.263-.167-.583-.167-.321 0-.584-.067-.584-.148 0-.082.263-.197.584-.258.32-.06.583-.181.583-.268 0-.088.15-.159.333-.159.184 0 .334-.075.334-.167 0-.092.15-.167.333-.167.183 0 .333-.075.333-.166 0-.092.113-.167.25-.167.138 0 .25-.066.25-.147 0-.082.413-.199.917-.262s.917-.185.917-.27c0-.085.15-.154.333-.154.183 0 .333-.075.333-.167 0-.092.188-.167.417-.167.229 0 .417-.075.417-.166 0-.092.262-.167.583-.167.321 0 .583-.069.583-.153 0-.085.488-.206 1.084-.27.595-.064 1.083-.182 1.083-.263 0-.081.262-.147.583-.147.321 0 .584-.075.584-.167 0-.092.262-.167.583-.167.321 0 .583-.075.583-.166 0-.092.338-.167.75-.167.413 0 .75-.067.75-.149 0-.082.675-.202 1.5-.268.825-.065 1.5-.185 1.5-.267 0-.082.3-.149.667-.149h.667v-.917c0-.504-.075-.917-.167-.917-.101 0-.167-.75-.167-1.916V18.5h-1.916c-1.055 0-1.917.064-1.917.143m148.125.298c-.16.046-.292.153-.292.238 0 .085-.12.154-.266.154-.32 0-1.234.94-1.234 1.268 0 .128-.075.232-.166.232-.092 0-.167.15-.167.334 0 .183-.075.333-.167.333-.091 0-.166.188-.166.417 0 .229-.075.416-.167.416-.099 0-.167.611-.167 1.5s.068 1.5.167 1.5c.092 0 .167.188.167.417 0 .229.075.417.166.417.092 0 .167.115.167.257 0 .251.201.557.631.959.57.534.697.617.94.617.144 0 .262.075.262.167 0 .091.188.166.417.166.229 0 .417.075.417.167 0 .1.666.167 1.666.167 1.537 0 1.667.025 1.667.322 0 .177-.15.369-.333.428-.184.058-.334.173-.334.255 0 .172-.944 1.126-1.475 1.49-.197.135-.358.373-.358.53 0 .297-.219.558-.813.97-.194.135-.354.351-.354.481 0 .129-.187.409-.416.622-.356.329-.417.533-.417 1.394 0 .561-.074 1.008-.167 1.008-.095 0-.166.5-.166 1.166 0 .667-.072 1.167-.167 1.167-.103 0-.167.833-.167 2.167 0 1.333-.064 2.166-.166 2.166-.109 0-.167 2.584-.167 7.417s.058 7.417.167 7.417c.107 0 .166 1.722.166 4.833v4.833h3.679c2.966 0 3.725-.046 3.917-.238.294-.294.364-23.095.071-23.095-.106 0-.167-1.417-.167-3.917 0-2.154-.063-3.916-.14-3.916-.077 0-.19-1.665-.251-3.7-.076-2.506-.173-3.737-.304-3.818-.187-.115.179-.649.445-.649.059 0 .22-.113.357-.25a.946.946 0 0 1 .572-.25c.206 0 .321-.115.321-.321 0-.177.113-.434.25-.572.138-.137.25-.33.25-.428 0-.099.075-.179.167-.179.092 0 .167-.225.167-.5s.075-.5.166-.5c.098 0 .167-.556.167-1.333 0-.778-.069-1.334-.167-1.334-.091 0-.166-.171-.166-.38 0-.208-.15-.488-.334-.62-.183-.132-.333-.346-.333-.477 0-.309-.924-1.189-1.248-1.189-.139 0-.252-.075-.252-.167 0-.092-.106-.167-.236-.167s-.267-.093-.306-.208c-.07-.211-4.682-.371-5.333-.184m-39.617 3.132c-.138.167-.228 1.666-.296 4.917l-.097 4.677h-18.078l-.109.583c-.061.321-.181.583-.269.583-.087 0-.159.15-.159.334 0 .183-.075.333-.167.333-.091 0-.166.112-.166.25 0 .137-.075.25-.167.25-.092 0-.167.15-.167.333 0 .184-.066.334-.148.334-.081 0-.197.262-.257.583-.061.321-.181.583-.269.583-.087 0-.159.15-.159.334 0 .183-.075.333-.167.333-.091 0-.166.112-.166.25 0 .137-.075.25-.167.25-.092 0-.167.15-.167.333 0 .184-.066.334-.148.334-.081 0-.197.262-.257.583-.061.321-.181.583-.269.583-.087 0-.159.15-.159.334 0 .183-.075.333-.167.333-.091 0-.166.112-.166.25 0 .137-.075.25-.167.25-.092 0-.167.15-.167.333 0 .184-.066.334-.148.334-.081 0-.197.262-.257.583-.061.321-.181.583-.269.583-.087 0-.159.15-.159.334 0 .183-.075.333-.167.333-.091 0-.166.112-.166.25 0 .137-.075.25-.167.25-.092 0-.167.15-.167.333 0 .184-.066.334-.148.334-.081 0-.197.262-.257.583-.061.321-.181.583-.269.583-.087 0-.159.15-.159.334 0 .183-.075.333-.167.333-.091 0-.166.112-.166.25 0 .137-.075.25-.167.25-.092 0-.167.15-.167.333 0 .184-.066.334-.148.334-.081 0-.197.262-.257.583-.061.321-.181.583-.269.583-.087 0-.159.15-.159.334 0 .183-.075.333-.167.333-.091 0-.166.112-.166.25 0 .137-.075.25-.167.25-.092 0-.167.15-.167.333 0 .184-.066.334-.148.334-.081 0-.197.262-.257.583-.061.321-.181.583-.269.583-.087 0-.159.15-.159.334 0 .183-.075.333-.167.333-.091 0-.166.112-.166.25 0 .137-.075.25-.167.25-.092 0-.167.15-.167.333 0 .184-.066.334-.148.334-.081 0-.197.262-.257.583-.061.321-.181.583-.269.583-.087 0-.159.15-.159.334 0 .183-.075.333-.167.333-.091 0-.166.085-.166.189s-.14.31-.311.458c-.171.149-.365.514-.43.811-.066.298-.188.542-.273.542-.084 0-.153.15-.153.333 0 .184-.075.334-.167.334-.091 0-.166.15-.166.333 0 .183-.075.333-.167.333-.092 0-.167.113-.167.25 0 .138-.066.25-.148.25-.081 0-.197.263-.257.584-.061.32-.181.583-.269.583-.087 0-.159.15-.159.333 0 .184-.075.334-.167.334-.091 0-.166.15-.166.333 0 .183-.043.333-.096.333-.195 0-.571-.485-.571-.738 0-.144-.072-.262-.159-.262-.088 0-.208-.262-.269-.583-.06-.321-.176-.583-.257-.583-.082 0-.148-.15-.148-.334 0-.183-.075-.333-.167-.333-.092 0-.167-.113-.167-.25 0-.138-.075-.25-.166-.25-.092 0-.167-.144-.167-.319 0-.176-.08-.347-.177-.379-.098-.033-.22-.376-.272-.764-.052-.388-.16-.705-.24-.705-.079 0-.144-.112-.144-.25 0-.137-.075-.25-.167-.25-.092 0-.167-.15-.167-.333 0-.183-.075-.333-.166-.333-.092 0-.167-.15-.167-.334 0-.183-.072-.333-.159-.333-.088 0-.208-.263-.269-.583-.06-.321-.176-.584-.257-.584-.082 0-.148-.112-.148-.25 0-.137-.075-.25-.167-.25-.092 0-.167-.225-.167-.5s-.075-.5-.166-.5c-.092 0-.167-.112-.167-.25 0-.137-.075-.25-.167-.25-.091 0-.166-.112-.166-.249 0-.347-.552-1.584-.706-1.584-.07 0-.128-.15-.128-.333 0-.184-.075-.334-.166-.334-.092 0-.167-.112-.167-.25 0-.137-.075-.25-.167-.25-.091 0-.166-.112-.166-.249 0-.347-.552-1.584-.706-1.584-.07 0-.128-.15-.128-.333 0-.184-.075-.334-.166-.334-.092 0-.167-.112-.167-.25 0-.137-.067-.25-.148-.25-.082 0-.198-.264-.258-.587-.061-.323-.257-.678-.436-.79-.178-.111-.325-.335-.325-.496 0-.161-.075-.293-.166-.293-.092 0-.167-.15-.167-.334 0-.183-.075-.333-.167-.333-.091 0-.166-.08-.166-.179 0-.098-.113-.291-.25-.428a.94.94 0 0 1-.25-.572c0-.176-.075-.321-.167-.321-.092 0-.167-.096-.167-.213 0-.117-.15-.322-.333-.454-.183-.132-.333-.365-.333-.519a.429.429 0 0 0-.25-.374.423.423 0 0 1-.25-.368c0-.149-.225-.482-.5-.739s-.5-.515-.5-.574c0-.117-.222-.399-.792-1.009-.206-.221-.375-.446-.375-.5 0-.086-.452-.612-.963-1.12l-.727-.722a34.52 34.52 0 0 1-.76-.774c-.395-.428-.707-.634-.96-.634-.141 0-.257-.072-.257-.159 0-.282-.838-1.008-1.163-1.008-.173 0-.362-.15-.42-.333-.058-.183-.251-.333-.428-.333s-.322-.075-.322-.167c0-.092-.142-.167-.316-.167-.173 0-.358-.112-.411-.25-.053-.137-.248-.25-.434-.25-.187 0-.339-.075-.339-.166 0-.094-.472-.167-1.083-.167h-1.084v.75c0 .412.075.75.167.75.092 0 .167.113.167.25s.075.25.166.25c.092 0 .167.15.167.333 0 .184.075.334.167.334.091 0 .166.187.166.416 0 .23.071.417.157.417.086 0 .207.337.269.75.062.412.179.75.26.75.081 0 .148.15.148.333 0 .184.075.334.166.334.092 0 .167.187.167.416 0 .23.075.417.167.417.091 0 .166.15.166.333 0 .184.072.334.159.334.088 0 .209.262.269.583.06.321.176.583.258.583.081 0 .148.188.148.417 0 .229.075.417.166.417.092 0 .167.15.167.333 0 .183.075.333.167.333.091 0 .166.15.166.334 0 .183.075.333.167.333.092 0 .167.112.167.25 0 .137.066.25.148.25.081 0 .197.262.257.583.061.321.181.584.269.584.087 0 .159.225.159.5s.075.5.167.5c.091 0 .166.112.166.25 0 .137.075.25.167.25.092 0 .167.15.167.333 0 .183.066.333.148.333.081 0 .197.263.257.584.061.32.181.583.269.583.087 0 .159.15.159.333 0 .184.075.334.167.334.091 0 .166.112.166.25 0 .137.075.25.167.25.092 0 .167.15.167.333 0 .183.066.333.148.333.081 0 .197.263.257.584.061.32.181.583.269.583.087 0 .159.15.159.333 0 .184.075.334.167.334.091 0 .166.112.166.25 0 .137.075.25.167.25.092 0 .167.15.167.333 0 .183.075.333.166.333.092 0 .167.153.167.339 0 .186.112.382.25.434.137.053.25.238.25.412 0 .173.075.315.167.315.091 0 .166.15.166.334 0 .183.075.333.167.333.092 0 .167.112.167.25 0 .137.066.25.148.25.081 0 .197.262.257.583.061.321.181.584.269.584.087 0 .159.133.159.296 0 .163.15.405.333.537.184.132.334.336.334.453 0 .118.068.214.152.214.083 0 .202.3.264.666.062.367.181.667.265.667.084 0 .152.112.152.25 0 .137.075.25.167.25.091 0 .166.15.166.333 0 .184.075.334.167.334.092 0 .167.08.167.178 0 .098.112.291.25.429.137.137.25.394.25.571 0 .177.075.322.166.322.092 0 .167.112.167.25 0 .137.075.25.167.25.091 0 .166.15.166.333 0 .183.075.333.167.333.092 0 .167.15.167.334 0 .183.067.333.148.333.082 0 .196.188.253.417.058.229.179.416.269.416.089 0 .163.15.163.334 0 .183.075.333.167.333.091 0 .166.112.166.25 0 .137.075.25.167.25.092 0 .167.15.167.333 0 .184.069.334.153.334.084 0 .207.243.272.541.066.298.259.663.43.811.171.149.311.355.311.459 0 .104.075.189.167.189.092 0 .167.15.167.333 0 .183.066.333.148.333.081 0 .197.263.257.584.061.32.181.583.269.583.087 0 .159.15.159.333 0 .184.075.334.167.334.091 0 .166.112.166.25 0 .137.075.25.167.25.092 0 .167.118.167.262 0 .528.445.738 1.571.738.619 0 1.095-.073 1.095-.167 0-.092.15-.167.334-.167.183 0 .333-.075.333-.166 0-.092.112-.167.25-.167.137 0 .25-.067.25-.148 0-.082.246-.194.547-.251.301-.056.655-.252.787-.435s.356-.333.499-.333c.143 0 .368-.15.5-.333.132-.183.334-.333.448-.333.114 0 .47-.263.791-.584.321-.32.627-.583.679-.583.2 0 1.216-.952 1.578-1.478.135-.196.379-.399.542-.45.162-.052.296-.205.296-.34 0-.331.206-.578 1.291-1.548.298-.267.542-.607.542-.756 0-.15.112-.315.25-.368.137-.052.25-.208.25-.344 0-.137.214-.449.477-.694.262-.245.529-.613.594-.817.065-.204.188-.372.274-.372.085 0 .155-.15.155-.333 0-.183.075-.333.167-.333.091 0 .166-.096.166-.214 0-.117.15-.321.334-.453.183-.132.333-.374.333-.537 0-.163.067-.296.149-.296.081 0 .195-.188.253-.417.057-.229.178-.417.268-.417.09 0 .163-.15.163-.333 0-.183.075-.333.167-.333.092 0 .167-.113.167-.25 0-.138.075-.25.166-.25.092 0 .167-.15.167-.334 0-.183.072-.333.159-.333.088 0 .208-.263.269-.583.06-.321.176-.584.257-.584.082 0 .148-.15.148-.333 0-.183.075-.333.167-.333.092 0 .167-.113.167-.25 0-.138.075-.25.166-.25.092 0 .167-.15.167-.334 0-.183.072-.333.159-.333.088 0 .208-.263.269-.583.06-.321.176-.584.257-.584.082 0 .148-.15.148-.333 0-.183.075-.333.167-.333.092 0 .167-.113.167-.25 0-.138.075-.25.166-.25.092 0 .167-.15.167-.334 0-.183.072-.333.159-.333.088 0 .208-.263.269-.583.06-.321.176-.584.257-.584.082 0 .148-.15.148-.333 0-.183.075-.333.167-.333.092 0 .167-.113.167-.25 0-.138.075-.25.166-.25.092 0 .167-.15.167-.334 0-.183.066-.333.148-.333.081 0 .198-.337.26-.75s.183-.75.269-.75c.086 0 .156-.113.156-.25 0-.138.075-.25.167-.25.092 0 .167-.15.167-.333 0-.184.075-.334.166-.334.092 0 .167-.15.167-.333 0-.183.072-.333.159-.333.088 0 .208-.263.269-.584.06-.321.176-.583.257-.583.082 0 .148-.113.148-.25 0-.138.075-.25.167-.25.092 0 .167-.15.167-.333 0-.184.075-.334.166-.334.092 0 .167-.15.167-.333 0-.183.072-.333.159-.333.088 0 .208-.263.269-.584.06-.321.176-.583.257-.583.082 0 .148-.113.148-.25 0-.138.075-.25.167-.25.092 0 .167-.133.167-.297 0-.163.149-.404.332-.536.183-.132.379-.486.435-.787.093-.494.399-.786.399-.38 0 .092.15.167.334.167.183 0 .333.066.333.147 0 .082.338.199.75.261.412.061.75.182.75.269 0 .086.188.156.417.156.229 0 .416.075.416.167 0 .091.15.166.334.166.183 0 .333.075.333.167 0 .092.15.167.333.167.184 0 .334.066.334.147 0 .082.337.199.75.261.412.061.75.182.75.269 0 .086.187.156.416.156.23 0 .417.075.417.167 0 .091.15.166.333.166.184 0 .334.075.334.167 0 .092.187.167.416.167.23 0 .417.068.417.152 0 .083.314.205.699.27 1.066.18 1.134.32 1.134 2.316 0 .969.065 1.762.143 1.762.078 0 .181 3.128.228 6.951.061 4.961.139 6.969.274 7.014.114.038.189.483.189 1.132 0 .602.073 1.069.166 1.069.092 0 .167.338.167.75 0 .413.075.75.167.75.091 0 .166.338.166.75 0 .413.067.75.148.75.081 0 .198.338.26.75.062.413.183.75.269.75.086 0 .157.145.157.322 0 .178.133.365.296.417.163.051.406.254.541.45.433.629 1.384 1.478 1.656 1.478a.17.17 0 0 1 .173.167c0 .091.15.166.334.166.183 0 .333.075.333.167 0 .092.15.167.333.167.184 0 .334.071.334.158 0 .087.45.209 1 .272.55.062 1 .178 1 .258 0 .08.337.145.75.145.412 0 .75.075.75.167 0 .098.583.166 1.416.166.834 0 1.417.069 1.417.167 0 .104 1 .167 2.667.167 1.666 0 2.666-.063 2.666-.167 0-.099.611-.167 1.5-.167s1.5-.068 1.5-.166c0-.092.413-.167.917-.167s.917-.07.917-.155c0-.085.412-.206.916-.269.504-.063.917-.181.917-.262 0-.081.112-.147.25-.147.137 0 .25-.075.25-.167 0-.092.15-.167.333-.167.184 0 .334-.075.334-.166a.17.17 0 0 1 .173-.167c.378 0 2.16-1.782 2.16-2.16a.17.17 0 0 1 .167-.173c.091 0 .166-.15.166-.334 0-.183.075-.333.167-.333.092 0 .167-.113.167-.25 0-.138.066-.25.147-.25.081 0 .199-.413.262-.917s.184-.916.269-.916c.085 0 .155-.413.155-.917s.075-.917.167-.917c.095 0 .166-.5.166-1.166 0-.667.072-1.167.167-1.167.099 0 .167-.611.167-1.5 0-.825.064-1.5.142-1.5.078 0 .194-.806.257-1.792.063-.985.187-1.816.275-1.847.245-.086.188-1.022-.079-1.29-.366-.366-1.218-.306-1.345.096-.059.183-.176.333-.262.333-.085 0-.155.096-.155.213 0 .117-.15.322-.333.454-.184.132-.334.346-.334.476 0 .129-.187.409-.416.622-.229.212-.417.485-.417.607s-.15.329-.333.461c-.184.132-.334.337-.334.454 0 .117-.073.213-.163.213-.09 0-.215.206-.277.458-.062.252-.251.58-.42.728-.168.148-.306.338-.306.422 0 .083-.15.26-.334.392-.183.132-.333.376-.333.542 0 .166-.113.345-.25.398-.138.052-.25.238-.25.411 0 .174-.075.316-.167.316-.091 0-.166.145-.166.322 0 .177-.15.369-.334.428-.183.058-.333.25-.333.428 0 .177-.074.322-.163.322-.09 0-.211.187-.269.416-.057.23-.171.417-.253.417-.081 0-.148.122-.148.272 0 .15-.135.394-.3.542-.343.307-.867 1.361-.867 1.742 0 .14-.15.302-.333.361-.184.058-.334.25-.334.428 0 .285-.123.322-1.083.322-.611 0-1.083-.073-1.083-.167 0-.095-.5-.167-1.167-.167-.642 0-1.167-.066-1.167-.148 0-.082-.825-.202-1.833-.268s-1.833-.187-1.833-.269c0-.081-.338-.148-.75-.148-.413 0-.75-.075-.75-.167 0-.091-.338-.166-.75-.166-.413 0-.75-.075-.75-.167 0-.092-.188-.167-.417-.167-.365 0-.417-.072-.417-.583 0-.321-.075-.583-.166-.583-.096 0-.167-.5-.167-1.167s-.071-1.167-.167-1.167c-.098 0-.166-.606-.166-1.486 0-.817-.069-1.511-.153-1.541-.088-.032-.205-3.392-.275-7.848l-.121-7.791H280.5v-3.096c0-2.46-.049-3.144-.238-3.333-.293-.293-14.095-.363-14.095-.071 0 .106-1.325.166-3.641.166h-3.64l-.109-3.125c-.06-1.718-.11-3.81-.11-4.649 0-1.235-.05-1.542-.264-1.625-.605-.232-6.688-.109-6.895.139m126.159 8.26c0 .104-.917.167-2.417.167-1.329 0-2.417.064-2.417.143 0 .079-.918.196-2.041.261-1.123.065-2.067.189-2.098.274-.03.085-.536.155-1.125.155-.601 0-1.069.073-1.069.167 0 .092-.413.167-.917.167s-.916.075-.916.166c0 .092-.338.167-.75.167-.413 0-.75.065-.75.145 0 .08-.45.196-1 .258-.55.063-1 .185-1 .272 0 .087-.15.158-.334.158-.183 0-.333.075-.333.167 0 .092-.145.167-.322.167-.177 0-.37.15-.428.333-.058.183-.247.333-.42.333-.412 0-1.163.759-1.163 1.175 0 .179-.064.325-.141.325-.263 0-.859.621-.859.895 0 .15-.072.272-.159.272-.088 0-.209.262-.269.583-.06.321-.176.584-.258.584-.081 0-.148.187-.148.416 0 .23-.075.417-.166.417-.092 0-.167.3-.167.667 0 .366-.075.666-.167.666-.103 0-.166.945-.166 2.5 0 1.556.063 2.5.166 2.5.092 0 .167.263.167.584 0 .32.075.583.167.583.091 0 .166.15.166.333 0 .184.069.334.154.334.084 0 .207.243.272.541.066.298.259.663.43.811.171.149.311.321.311.383 0 .147.784.931.931.931.062 0 .246.153.407.339.192.222.59.375 1.145.44.468.056.85.166.85.245 0 .078.338.143.75.143.413 0 .75.075.75.167 0 .091.413.166.917.166s.917.075.917.167c0 .092.439.167.986.167.542 0 1.011.069 1.041.155.031.086 1.937.208 4.264.274 2.315.066 4.209.184 4.209.262 0 .078 1.087.142 2.416.142 1.5 0 2.417.063 2.417.167 0 .099.639.166 1.583.166.945 0 1.584.068 1.584.167 0 .094.472.167 1.083.167.596 0 1.083.064 1.083.142 0 .078.657.192 1.459.254.802.061 1.483.185 1.514.274.03.09.311.163.625.163.313 0 .569.075.569.167 0 .091.113.166.252.166.429 0 1.248.915 1.248 1.393 0 .243.075.441.167.441.091 0 .166.412.166.916s-.065.917-.145.917c-.08 0-.196.45-.258 1s-.184 1-.272 1c-.087 0-.158.15-.158.333 0 .184-.075.334-.167.334-.091 0-.166.144-.166.32 0 .286-.176.332-1.667.438-.917.065-1.667.183-1.667.263 0 .08-.675.145-1.5.145-.889 0-1.5.068-1.5.167 0 .109-2.916.167-8.416.167s-8.417-.058-8.417-.167c0-.092-.142-.167-.316-.167-.173 0-.358-.112-.411-.25-.053-.137-.232-.25-.398-.25s-.41-.15-.542-.333c-.132-.183-.302-.333-.377-.333-.076 0-.325-.188-.554-.417-.23-.229-.559-.417-.732-.417-.173 0-.362-.15-.42-.333-.058-.183-.217-.333-.352-.333-.136 0-.434-.188-.663-.417-.229-.229-.509-.417-.622-.417-.114 0-.314-.15-.446-.333-.132-.183-.346-.333-.476-.333-.129 0-.357-.14-.505-.31a1.69 1.69 0 0 0-.644-.428c-.207-.065-.375-.188-.375-.274 0-.085-.145-.155-.322-.155-.178 0-.37-.15-.428-.333-.059-.184-.251-.334-.428-.334s-.322-.07-.322-.155c0-.086-.169-.209-.375-.274a1.685 1.685 0 0 1-.645-.428c-.633-.727-1.314-.412-1.314.607 0 .504.072.917.159.917.088 0 .209.262.269.583.06.321.176.584.258.584.081 0 .148.112.148.25 0 .137.075.25.166.25.092 0 .167.15.167.333 0 .183.075.333.167.333.091 0 .166.188.166.417 0 .229.071.417.157.417.086 0 .207.337.269.75.062.412.179.75.26.75.081 0 .148.15.148.333 0 .183.075.333.166.333.092 0 .167.15.167.334 0 .183.075.333.167.333.091 0 .166.112.166.25 0 .137.075.25.167.25.092 0 .167.145.167.321a.94.94 0 0 0 .25.572c.137.137.25.295.25.35 0 .224 2.002 2.09 2.241 2.09.142 0 .259.075.259.167 0 .092.181.167.402.167.222 0 .428.074.459.165.03.09.524.214 1.097.273.573.06 1.042.173 1.042.252 0 .079.337.143.75.143.412 0 .75.075.75.167 0 .091.337.166.75.166.412 0 .75.075.75.167 0 .092.439.167.986.167.641 0 1.01.073 1.055.208.055.163 1.829.208 8.125.208 6.297 0 8.071-.045 8.125-.208.043-.129.382-.208.889-.208.451 0 .82-.075.82-.167 0-.092.3-.167.666-.167.367 0 .667-.075.667-.166 0-.092.262-.167.583-.167.321 0 .584-.07.584-.155 0-.085.412-.206.916-.269.504-.063.917-.181.917-.262 0-.081.188-.147.417-.147.229 0 .416-.075.416-.167 0-.092.15-.167.334-.167.183 0 .333-.075.333-.166 0-.092.188-.167.417-.167.229 0 .416-.067.416-.148 0-.082.263-.197.584-.258.321-.06.583-.181.583-.268 0-.088.15-.159.333-.159.223 0 .334-.111.334-.334 0-.183.073-.333.163-.333.09 0 .211-.187.268-.417.058-.229.172-.416.253-.416.082 0 .149-.134.149-.297 0-.163.15-.405.333-.537.184-.132.334-.405.334-.606 0-.201.076-.391.169-.422.093-.031.216-.563.274-1.181.058-.618.169-1.124.247-1.124.079 0 .143-1.013.143-2.25 0-1.238-.064-2.25-.143-2.25-.078 0-.186-.58-.24-1.288-.053-.709-.177-1.315-.274-1.348-.097-.032-.176-.352-.176-.711s-.075-.653-.167-.653c-.092 0-.167-.113-.167-.25 0-.138-.075-.25-.166-.25-.092 0-.167-.118-.167-.262 0-.381-.407-.728-.99-.844-.281-.056-.51-.168-.51-.248 0-.08-.113-.146-.25-.146s-.25-.075-.25-.167c0-.091-.225-.166-.5-.166s-.5-.075-.5-.167c0-.092-.113-.167-.25-.167s-.25-.066-.25-.147c0-.081-.413-.199-.917-.262s-.916-.184-.916-.269c0-.085-.263-.155-.584-.155-.321 0-.583-.075-.583-.167 0-.091-.338-.166-.75-.166-.413 0-.75-.075-.75-.167 0-.092-.294-.167-.653-.167-.359 0-.678-.072-.708-.159-.031-.088-1.162-.212-2.514-.276-1.352-.063-2.458-.179-2.458-.257 0-.077-1.088-.141-2.417-.141-1.5 0-2.417-.063-2.417-.167 0-.107-1.861-.166-5.25-.166-3.389 0-5.25-.059-5.25-.167 0-.1-.666-.167-1.666-.167H363.5v-7.166h1.083c.611 0 1.084-.073 1.084-.167 0-.097.555-.167 1.333-.167.778 0 1.333-.069 1.333-.166 0-.108 1.75-.167 4.917-.167s4.917.059 4.917.167c0 .098.611.166 1.5.166s1.5.068 1.5.167c0 .094.472.167 1.083.167.596 0 1.083.067 1.083.149 0 .082.675.202 1.5.267.825.066 1.5.186 1.5.268 0 .082.263.149.584.149.321 0 .583.075.583.167 0 .091.337.166.75.166.412 0 .75.075.75.167 0 .092.225.167.5.167s.5.065.5.145c0 .08.45.196 1 .258s1 .184 1 .272c0 .087.3.158.667.158.366 0 .666.075.666.167 0 .091.188.166.417.166.229 0 .417.075.417.167 0 .092.262.167.583.167.321 0 .583.066.583.147 0 .081.413.199.917.262s.917.184.917.269c0 .085.187.155.416.155.23 0 .417.075.417.167 0 .092.444.166 1 .166.942 0 1-.023 1-.396 0-.807-.211-1.429-.52-1.527a.466.466 0 0 1-.313-.409c0-.171-.113-.423-.25-.561-.138-.137-.25-.295-.25-.35 0-.086-.623-.785-1.321-1.483l-.727-.726-.702-.704c-.528-.531-1.081-1.01-1.167-1.01-.054 0-.286-.188-.515-.417-.229-.229-.563-.417-.743-.417-.179 0-.325-.075-.325-.166 0-.092-.096-.167-.214-.167-.117 0-.321-.15-.453-.333-.132-.184-.365-.334-.518-.334-.152 0-.492-.112-.755-.249-.262-.137-.608-.249-.769-.25-.16 0-.291-.076-.291-.167 0-.092-.113-.167-.25-.167-.138 0-.25-.075-.25-.167 0-.091-.225-.166-.5-.166s-.5-.075-.5-.167c0-.092-.263-.167-.584-.167-.321 0-.583-.07-.583-.155 0-.085-.6-.207-1.333-.271-.734-.064-1.334-.182-1.334-.262 0-.08-.75-.145-1.666-.145-1 0-1.667-.067-1.667-.167 0-.101-.75-.166-1.917-.166-1.166 0-1.916.065-1.916.166m-59.959.616c-.756.035-1.375.136-1.375.224 0 .091-.653.16-1.5.16-.889 0-1.5.068-1.5.167 0 .096-.527.167-1.25.167-.722 0-1.25.07-1.25.166 0 .093-.444.167-1 .167-.555 0-1 .074-1 .167 0 .091-.318.167-.708.168-.39.001-.99.048-1.333.105l-.625.104v1.061c0 .597-.073 1.062-.167 1.062-.103 0-.167.916-.167 2.416s-.063 2.417-.166 2.417c-.11 0-.167 6.604-.167 19.479v19.479l.521.105c.286.057 1.374.104 2.416.104 1.153 0 1.896.065 1.896.166 0 .273 2.482.209 2.762-.071.198-.198.238-1.257.238-6.216v-5.978l1.125.069c.619.038 1.15.136 1.181.216.03.081.537.147 1.125.147.602 0 1.069.073 1.069.167 0 .097.556.166 1.334.166.777 0 1.333.07 1.333.167 0 .096.523.167 1.236.167.768 0 1.26.071 1.299.187.095.286 12.662.306 12.757.021.041-.125.364-.208.805-.208.405 0 .736-.075.736-.167 0-.092.263-.167.584-.167.32 0 .583-.075.583-.166 0-.092.262-.167.583-.167.321 0 .584-.066.584-.147 0-.082.412-.199.916-.262s.917-.185.917-.27c0-.085.15-.154.333-.154.184 0 .334-.075.334-.167 0-.092.112-.167.25-.167.137 0 .25-.075.25-.166 0-.092.15-.167.333-.167.183 0 .333-.075.333-.167 0-.091.145-.166.322-.166a.941.941 0 0 0 .571-.25c.138-.138.314-.25.392-.25.078 0 .25-.15.382-.334.132-.183.336-.333.453-.333.261 0 .88-.598.88-.85 0-.101.221-.389.491-.641s.544-.676.61-.942c.066-.266.257-.605.426-.753.169-.148.307-.43.307-.625 0-.196.075-.356.166-.356.092 0 .167-.143.167-.319 0-.176.08-.346.177-.379.098-.032.22-.376.272-.764.052-.387.16-.704.24-.704.079 0 .144-.188.144-.417 0-.229.075-.417.167-.417.092 0 .167-.262.167-.583 0-.321.075-.583.166-.583.092 0 .167-.332.167-.736 0-.405.086-.765.191-.8.283-.095.296-9.163.013-9.257-.12-.04-.204-.372-.204-.805 0-.404-.075-.736-.167-.736-.091 0-.166-.262-.166-.583 0-.321-.075-.583-.167-.583-.092 0-.167-.188-.167-.417 0-.229-.065-.417-.144-.417-.08 0-.188-.317-.24-.704-.052-.388-.174-.732-.272-.764-.097-.033-.177-.203-.177-.379s-.075-.319-.167-.319c-.091 0-.166-.15-.166-.334 0-.183-.075-.333-.167-.333-.092 0-.167-.113-.167-.25 0-.138-.075-.25-.166-.25-.092 0-.167-.145-.167-.321 0-.177-.187-.469-.417-.649-.229-.18-.416-.415-.416-.52 0-.278-2.225-2.453-2.645-2.586-.196-.062-.355-.183-.355-.269 0-.085-.15-.155-.334-.155-.183 0-.333-.075-.333-.167 0-.091-.113-.166-.25-.166s-.25-.075-.25-.167c0-.092-.15-.167-.333-.167-.184 0-.334-.069-.334-.154 0-.085-.412-.207-.916-.27-.505-.063-.917-.18-.917-.262 0-.081-.338-.147-.75-.147-.413 0-.75-.075-.75-.167 0-.091-.263-.166-.583-.166-.321 0-.584-.075-.584-.167 0-.092-.406-.167-.902-.167-.575 0-.929-.076-.973-.208-.068-.205-14.171-.345-17.75-.176m-141.736 5.908c.031.079.462.143.959.143.496 0 .902.075.902.167 0 .091.338.166.75.166.413 0 .75.075.75.167 0 .092.263.167.584.167.32 0 .583.069.583.154 0 .085.412.207.917.27.504.063.916.18.916.262 0 .081.154.147.341.147.31 0 1.159.675 1.159.921 0 .057.113.215.25.353.138.137.25.394.25.571 0 .177.075.322.167.322.092 0 .167.112.167.25 0 .137.075.25.166.25.092 0 .167.15.167.333 0 .183.075.333.167.333.091 0 .166.188.166.417 0 .229.067.417.148.417.081 0 .199.412.262.916s.184.917.269.917c.085 0 .155.337.155.75s.075.75.166.75c.098 0 .167.556.167 1.333 0 .778.069 1.334.167 1.334.091 0 .166.412.166.916s-.075.917-.166.917c-.098 0-.167.583-.167 1.417 0 .833-.069 1.416-.167 1.416-.091 0-.166.338-.166.75 0 .413-.066.75-.145.75-.08 0-.197.45-.259 1s-.184 1-.271 1c-.087 0-.159.15-.159.334 0 .183-.075.333-.166.333-.092 0-.167.112-.167.25 0 .137-.075.25-.167.25-.091 0-.166.15-.166.333 0 .184-.075.334-.167.334-.092 0-.167.152-.167.338 0 .186-.112.382-.25.435-.137.052-.25.204-.25.335 0 .626-.808 1.082-2.089 1.179-.684.052-1.244.158-1.244.237 0 .078-.412.142-.917.142-.504 0-.916.075-.916.167 0 .092-.413.167-.917.167s-.917.075-.917.166c0 .099-.611.167-1.5.167s-1.5.068-1.5.167c0 .105-1.222.166-3.333.166s-3.333-.061-3.333-.166c0-.093-.445-.167-1-.167-.556 0-1-.074-1-.167 0-.091-.263-.166-.584-.166-.321 0-.583-.075-.583-.167 0-.092-.3-.167-.667-.167-.366 0-.666-.066-.666-.147 0-.082-.338-.199-.75-.261-.413-.061-.75-.182-.75-.269 0-.086-.113-.156-.25-.156-.138 0-.25-.075-.25-.167 0-.091-.133-.166-.294-.166-.162 0-.435-.188-.607-.417-.172-.229-.423-.417-.559-.417-.546 0-1.54-1.371-1.54-2.125 0-.389-.075-.708-.167-.708-.092 0-.167-.375-.167-.833 0-.459-.075-.834-.166-.834-.097 0-.167-.527-.167-1.25 0-.722-.07-1.25-.167-1.25-.105 0-.166-1.25-.166-3.416 0-2.167.061-3.417.166-3.417.092 0 .167-.337.167-.75s.075-.75.167-.75c.091 0 .166-.225.166-.5s.075-.5.167-.5c.092 0 .167-.187.167-.417 0-.229.066-.416.148-.416.081 0 .194-.247.251-.547.056-.301.252-.655.435-.787s.332-.346.332-.475c0-.268.623-.858.906-.858.103 0 .296-.15.428-.333.132-.184.373-.334.536-.334.164 0 .297-.075.297-.166 0-.092.106-.167.236-.167s.262-.076.293-.17c.031-.093.45-.216.93-.273.481-.057.874-.168.874-.247 0-.079.188-.143.417-.143.229 0 .417-.075.417-.167 0-.092.337-.167.75-.167.412 0 .75-.075.75-.166 0-.092.412-.167.916-.167s.917-.072.917-.16c0-.323 8.346-.306 8.472.017m156.361-.024c0 .093.445.167 1 .167.556 0 1 .074 1 .167 0 .091.263.166.584.166.32 0 .583.075.583.167 0 .092.3.167.667.167.366 0 .666.065.666.145 0 .08.45.196 1 .258s1 .184 1 .272c0 .087.227.158.504.158.426 0 .52.077.604.495.055.279.236.539.412.595.173.054.314.228.314.384 0 .157.149.394.332.525.183.132.379.486.435.787.057.301.17.547.251.547.082 0 .148.188.148.417 0 .229.075.417.167.417.092 0 .167.225.167.5s.075.5.166.5c.092 0 .167.256.167.569 0 .313.094.601.208.639.16.053.209 1.129.209 4.625s-.049 4.572-.209 4.625c-.114.038-.208.326-.208.639s-.075.569-.167.569c-.091 0-.166.225-.166.5s-.075.5-.167.5c-.092 0-.167.188-.167.417 0 .229-.066.417-.147.417-.082 0-.197.322-.256.717-.064.428-.239.812-.435.953-.181.13-.328.333-.328.45 0 .117-.075.213-.167.213-.092 0-.167.118-.167.262 0 .144-.105.368-.235.497-.129.129-.263.32-.298.424-.036.107-.588.227-1.265.276-.661.047-1.202.151-1.202.23 0 .079-.45.144-1 .144-.555 0-1 .074-1 .167 0 .094-.472.167-1.083.167s-1.083.072-1.083.166c0 .099-.611.167-1.5.167s-1.5.068-1.5.167c0 .105-1.223.166-3.334.166-2.111 0-3.333-.061-3.333-.166 0-.094-.472-.167-1.083-.167s-1.084-.073-1.084-.167c0-.091-.262-.166-.583-.166-.321 0-.583-.075-.583-.167 0-.092-.188-.167-.417-.167-.229 0-.417-.065-.417-.144 0-.08-.317-.188-.704-.24-.388-.052-.732-.174-.764-.272-.033-.097-.203-.177-.379-.177s-.319-.075-.319-.167a.172.172 0 0 0-.175-.166c-.095 0-.361-.188-.59-.417-.23-.229-.564-.417-.743-.417-.179 0-.326-.071-.326-.159 0-.087-.187-.346-.416-.576-.229-.229-.417-.495-.417-.59a.172.172 0 0 0-.167-.175c-.091 0-.166-.225-.166-.5s-.068-.5-.151-.5c-.082 0-.204-.862-.27-1.916-.065-1.055-.185-1.917-.266-1.917-.081 0-.147-1.763-.147-3.917 0-2.256.065-3.916.153-3.916.084 0 .205-.563.269-1.25.065-.688.184-1.25.265-1.25.08 0 .147-.113.147-.25 0-.138.075-.25.166-.25.092 0 .167-.15.167-.334 0-.183.075-.333.167-.333.091 0 .166-.113.166-.25 0-.138.075-.25.167-.25.092 0 .167-.147.167-.326 0-.325.467-.871 1.144-1.336.196-.135.399-.379.451-.542a.462.462 0 0 1 .416-.296c.177 0 .322-.066.322-.147 0-.081.487-.2 1.083-.264.596-.063 1.084-.185 1.084-.269 0-.084.262-.153.583-.153.321 0 .583-.075.583-.167 0-.092.263-.167.584-.167.32 0 .583-.075.583-.166 0-.094.472-.167 1.083-.167s1.084-.073 1.084-.167c0-.106 1.472-.166 4.083-.166s4.083.06 4.083.166M39.205 58.5c0 .321.035.452.077.292a1.402 1.402 0 0 0 0-.584c-.042-.16-.077-.029-.077.292" fill="#0474dc"/><path d="M56.674 30.461c-2.499.972-3.721 3.994-2.547 6.294.93 1.823 3.71 2.791 5.579 1.944 1.48-.672 2.961-2.267 2.961-3.191a.76.76 0 0 1 .192-.467c.283-.283-.274-1.942-.976-2.911-1.095-1.509-3.577-2.305-5.209-1.669m-15.175-.003c-.001.069-.085.763-.186 1.542a51.188 51.188 0 0 0-.239 2.167c-.03.412-.139 1.687-.243 2.833-.473 5.205-.52 5.037 1.116 3.971.625-.406 2.074-1.329 3.22-2.049 5.096-3.203 5.99-3.803 5.995-4.02.005-.196-1.403-.924-6.076-3.145-2.789-1.324-3.584-1.612-3.587-1.299m17.834.375c0 .092.18.167.4.167.527 0 1.818 1.229 2.165 2.062.894 2.147-.404 4.672-2.797 5.438-1.414.453-4.601-.968-4.601-2.051 0-.119-.086-.301-.191-.406-.354-.355-.241-2.386.173-3.107.389-.68 1.228-1.6 1.464-1.606.075-.002.325-.151.554-.33.457-.357 2.833-.497 2.833-.167m4.291 9.875c-.044.207-.652 2.622-1.35 5.367-1.208 4.754-1.319 5.512-.759 5.166.063-.039.629-.183 1.258-.319.629-.137 2.081-.477 3.227-.756 1.146-.28 2.946-.689 4-.909 3.036-.633 3.007-.583 1.279-2.199-.671-.628-2.546-2.398-4.166-3.933-2.995-2.839-3.345-3.081-3.489-2.417M36.833 42.66c-3.503.364-5.117 4.463-2.797 7.105 3.322 3.784 10.07-.529 7.552-4.826-.649-1.107-2.88-2.61-3.586-2.415-.047.013-.573.074-1.169.136m2.45.748c.937.452 1.85 1.429 1.997 2.137.053.254.162.502.242.552.189.116.187 1.324-.003 1.697-.081.159-.233.477-.339.706-.22.475-1.081 1.5-1.26 1.5-.065 0-.355.169-.644.375-1.563 1.115-4.637.082-5.579-1.875-.857-1.783.567-5.167 2.174-5.167.163 0 .296-.075.296-.166 0-.359 2.23-.186 3.116.241m17.895 8.967c-.081.206-.574 2.175-1.095 4.375s-1.055 4.444-1.186 4.988c-.321 1.327-.31 1.33 2.355.687 1.907-.46 5.025-1.191 8.153-1.911.952-.219.809-.385-5.26-6.073-2.847-2.668-2.755-2.604-2.967-2.066m-13.512 1.94c-5.079 1.631-4.45 8.007.85 8.635 1.533.181 3.674-.999 4.436-2.445.216-.41.54-.903.72-1.094.338-.36.444-1.153.177-1.318-.083-.051-.379-.499-.659-.995-1.15-2.036-3.757-3.35-5.524-2.783m3.138.808c3.744 2.086 2.388 7.544-1.874 7.544-1.794 0-3.588-1.174-4.287-2.805-1.402-3.271 2.882-6.566 6.161-4.739" fill="#348edc"/><path d="M56.5 31c-.229.179-.479.328-.554.33-.236.006-1.075.926-1.464 1.606-.414.721-.527 2.752-.173 3.107.105.105.191.287.191.406 0 1.083 3.187 2.504 4.601 2.051 2.393-.766 3.691-3.291 2.797-5.438C61.551 32.229 60.26 31 59.733 31c-.22 0-.4-.075-.4-.167 0-.33-2.376-.19-2.833.167M36.167 43.167c0 .091-.133.166-.296.166-1.607 0-3.031 3.384-2.174 5.167.942 1.957 4.016 2.99 5.579 1.875.289-.206.579-.375.644-.375.179 0 1.04-1.025 1.26-1.5.106-.229.258-.547.339-.706.19-.373.192-1.581.003-1.697-.08-.05-.189-.298-.242-.552-.147-.708-1.06-1.685-1.997-2.137-.886-.427-3.116-.6-3.116-.241m7.592 11.457c-.47.068-1.43.646-2.21 1.33-1.873 1.643-1.344 4.88.98 5.992 1.842.882 2.697.949 3.953.313 4.641-2.351 2.489-8.385-2.723-7.635" fill="#298cdc"/><path d="M84.667.113c-.413.041-.822.145-.909.231-.087.086-.331.156-.541.156-.211 0-.384.065-.384.145 0 .08-.305.195-.678.254-.373.06-.876.238-1.118.397-.241.158-.48.278-.53.267-.205-.046-.604.184-.808.468-.12.166-.301.302-.404.302-.102 0-.304.107-.449.237-.144.13-.373.262-.509.292-.289.064-.467.224-.955.855-.198.257-.421.47-.496.475-.075.004-.117.076-.094.158.023.083-.071.15-.209.15-.137 0-.25.07-.25.155 0 .086-.151.204-.335.262-.185.059-.293.176-.241.261.052.085-.097.332-.331.549-.234.217-.426.48-.426.584 0 .104-.071.189-.159.189-.15 0-.342.361-.865 1.625-.123.298-.281.542-.35.542-.069 0-.126.113-.126.252s-.066.382-.147.542c-.276.541-.493 1.122-.515 1.372-.012.138-.05.625-.085 1.084-.034.458-.143 1.044-.241 1.302-.234.614-.229 1.876.009 2.32.103.193.18.714.17 1.156-.01.443.05.805.134.805s.12.183.079.406c-.04.223.002.453.095.51.092.057.168.287.168.511 0 .223.075.406.166.406.092 0 .167.106.167.235 0 .31.692 1.599.859 1.599.072 0 .087.112.035.25-.053.137-.013.25.088.25.102 0 .185.112.185.25 0 .137.075.25.166.25.092 0 .167.118.167.262 0 .377.465.787.763.672.211-.081.169-.223-.24-.818-.93-1.352-1.892-3.472-2.086-4.599-.104-.605-.232-1.176-.286-1.267-.117-.202-.072-3.897.051-4.25.048-.138.17-.7.271-1.25.213-1.159 1.536-3.901 2.292-4.75.286-.321.608-.752.716-.957.108-.205.625-.692 1.149-1.082.524-.39.991-.754 1.037-.807.045-.054.56-.376 1.144-.716 1.648-.959 2.865-1.417 4.939-1.86 1.292-.275 5.389-.122 6.417.24.229.081.834.27 1.345.421.511.15 1.656.683 2.545 1.184.889.5 1.74.91 1.891.91.151 0 .221.053.156.118-.153.153 2.011 2.215 2.324 2.215.131 0 .239.118.239.261 0 .261.582 1.119 1.291 1.904.207.229.375.51.375.625 0 .116.075.21.167.21.092 0 .167-.112.167-.25 0-.137-.063-.25-.139-.25-.076 0-.374-.468-.662-1.041-.288-.573-.676-1.136-.862-1.252-.185-.115-.337-.282-.337-.372 0-.268-1.974-2.168-2.252-2.168a.401.401 0 0 1-.349-.235c-.049-.129-.31-.325-.578-.437C96.22 2.717 96 2.56 96 2.48c0-.081-.098-.147-.219-.147-.12 0-.364-.135-.541-.3-.301-.279-.859-.567-.95-.49-.022.019-.217-.09-.434-.242s-.498-.236-.625-.187c-.127.048-.231.005-.231-.096 0-.102-.183-.185-.407-.185-.224 0-.453-.075-.51-.166C92.027.575 91.729.5 91.421.5c-.308 0-.589-.087-.625-.194-.067-.202-4.612-.345-6.129-.193m-72.084 1.72c-.056.092-.361.167-.676.167-.316 0-.574.075-.574.167 0 .091-.281.166-.625.166-.582-.001-2.187.458-2.375.679-.046.054-.327.204-.625.334-.298.129-.541.292-.541.361 0 .07-.155.126-.344.126-.188 0-.304.062-.257.138.047.076-.211.269-.574.429-.362.16-.659.391-.659.512 0 .122-.281.366-.625.542-.343.177-.699.484-.789.683-.091.2-.226.363-.302.363-.075 0-.09.075-.034.167.057.091-.017.166-.164.166-.147 0-.396.225-.552.499-.156.275-.34.5-.409.5-.068.001-.125.102-.125.226 0 .123-.15.359-.333.525-.183.166-.333.44-.333.609 0 .17-.075.308-.167.308-.092 0-.169.131-.172.292-.003.16-.115.437-.25.615C.8 10.774.748 11.5 1 11.5c.092 0 .167-.131.168-.292 0-.16.153-.516.34-.791.186-.275.485-.814.665-1.197.281-.603 1.287-1.949 1.845-2.47.939-.877 1.317-1.185 2.131-1.738 6.11-4.149 13.966-3.752 19.234.972C26.006 6.543 26.587 7 26.675 7c.296 0 .16-.483-.244-.867-1.435-1.366-2.621-2.3-2.92-2.3-.098 0-.178-.075-.178-.166 0-.092-.113-.167-.252-.167-.277 0-.857-.299-1.211-.625a.919.919 0 0 0-.539-.208c-.171 0-.358-.075-.414-.167-.057-.092-.361-.167-.677-.167-.315 0-.573-.075-.573-.166 0-.092-.296-.167-.657-.167-.361 0-.703-.075-.76-.167-.062-.1-1.193-.166-2.833-.166-1.641 0-2.772.066-2.834.166m74.062 4.473c-.215.244-.391.506-.393.582-.001.077-.114.227-.252.334-.138.107-.475.532-.75.945-.275.412-.556.775-.625.805-.069.031-.125.158-.125.283 0 .125-.187.43-.417.677-.432.467-.526.814-.264.976.167.103 1.014-1.307 1.014-1.689 0-.138.081-.189.193-.12.119.074.147.046.073-.073-.07-.114-.014-.193.138-.193.141 0 .303-.184.36-.41.056-.226.227-.451.38-.499.152-.048.407-.388.566-.756.315-.726.809-.894 1.11-.376.094.16.172.221.175.134.003-.086.112-.011.242.167.13.178.281.278.337.222.186-.186-.086-.562-.731-1.009l-.641-.444-.39.444m-59.704.641c-.211.212-.103.704.201.919.17.119.434.461.587.759.178.344.404.542.621.542.309 0 .317-.024.079-.262-.144-.144-.262-.372-.262-.505 0-.134-.112-.287-.249-.339-.137-.053-.217-.149-.177-.214.103-.165-.667-1.032-.8-.9m61.755.312c.03.142.114.251.188.242.073-.01.345.209.603.485s.504.468.546.425c.042-.042.253.111.468.34.374.398.999.57.999.275 0-.336-.6-.692-.812-.482-.165.164-.183.141-.086-.113.085-.223.062-.283-.074-.199-.111.069-.195.027-.195-.098 0-.121-.34-.425-.756-.677-.878-.53-.954-.547-.881-.198M18.583 8.786c-.458.14-.983.315-1.166.39-.184.074-.634.227-1 .339-2.055.626-4.83 2.124-5.017 2.706-.154.482.019.493.561.036.277-.233.619-.424.76-.424.141 0 .304-.15.362-.333.067-.21.253-.333.502-.333.217 0 .438-.07.49-.154.053-.085.32-.203.594-.263.274-.061.498-.179.498-.263 0-.085.187-.154.416-.154.23 0 .417-.075.417-.166 0-.092.112-.167.25-.167.137 0 .25-.056.25-.125.001-.069.271-.144.602-.168.33-.024.686-.097.791-.164a1.36 1.36 0 0 1 .274-.142c.045-.012.327-.078.625-.149.298-.07.541-.193.541-.273 0-.08.113-.146.25-.146.138 0 .25-.075.25-.166 0-.215-.227-.193-1.25.119m1.084.91c0 .845.117 1.052.443.782.327-.272.273-.882-.11-1.228-.329-.297-.333-.291-.333.446m82-.305c0 .243.065.442.144.442.15 0 .509 1.358.601 2.27.085.85.274 1.324.417 1.049.145-.278-.173-2.485-.358-2.485-.07 0-.084-.113-.031-.25.052-.138.02-.25-.073-.25s-.134-.135-.091-.299c.044-.168-.071-.433-.266-.609-.339-.306-.343-.305-.343.132m-73.061.567c.141.344.361.733.488.865.285.297.526.106.265-.209-.104-.126-.14-.277-.08-.338.061-.06.022-.109-.085-.109-.107 0-.194-.142-.194-.316 0-.258-.295-.518-.588-.518-.034 0 .054.282.194.625M92 9.821c0 .086.112.268.25.405.138.138.25.298.25.357s.112.22.25.357a.94.94 0 0 1 .25.572c0 .177.075.321.167.321.091 0 .166.188.166.417 0 .229.07.417.155.417.085 0 .178.637.208 1.417.04 1.051 0 1.417-.154 1.416-.136 0-.209.259-.209.74 0 .407-.059.777-.131.822-.073.045-.152.368-.175.718-.024.35-.114.707-.202.795-.087.087-.158.435-.158.772 0 .613-.43.974-.778.653-.185-.171-2.056 0-2.056.187 0 .143.179.159 2.246.207l.996.023.191-1.084c.105-.596.313-1.749.463-2.563.559-3.054.304-4.918-.906-6.618-.329-.462-.823-.66-.823-.331m-8.876 1.389c-.16.197-.291.446-.291.553 0 .108-.105.284-.234.39-.128.107-.434.604-.678 1.104-.245.5-.504.91-.575.91-.071 0-.268.337-.438.75-.17.412-.369.75-.442.75-.073 0-.133.106-.133.236s-.067.261-.149.291c-.277.104-1.172 2.044-.993 2.154.094.058-.005.159-.219.223-.558.169.354.509.959.357.468-.117.39-.428-.108-.428-.409 0-.408-.002.11-.931.24-.429.333-.723.209-.658-.124.065-.069-.02.123-.188.192-.169.445-.55.562-.848.117-.298.284-.542.37-.542.086 0 .106-.081.045-.18-.061-.099.038-.284.221-.412s.384-.438.446-.688c.063-.251.298-.639.523-.864.224-.224.452-.583.506-.797.054-.214.165-.348.246-.298.082.051.149-.056.149-.237s.087-.358.194-.394c.128-.042.141-.156.04-.337-.137-.245-.183-.237-.443.084m-53.957.189c0 .222.423.768.595.768.231 0 .016-.685-.262-.834-.263-.14-.333-.126-.333.066M20 12.25c0 .832.168.954.489.354.161-.301.166-.48.022-.75-.305-.57-.511-.41-.511.396M.5 12c0 .183.075.333.167.333.091 0 .166-.15.166-.333 0-.183-.075-.333-.166-.333-.092 0-.167.15-.167.333m29 .583c0 .138.075.25.167.25.091 0 .166-.112.166-.25 0-.137-.075-.25-.166-.25-.092 0-.167.113-.167.25m-19.208.495c-.161.221-.292.481-.292.578a.172.172 0 0 1-.167.177c-.091 0-.166.141-.166.313a.795.795 0 0 1-.261.53c-.346.286-.754 1.087-.622 1.22.203.202.333.098.648-.521.175-.344.448-.803.607-1.02.16-.217.249-.46.199-.541-.05-.081-.015-.147.078-.147.23 0 1.005-.79.889-.907-.209-.209-.639-.059-.913.318m19.541.495c0 .327.075.594.167.594.092 0 .167-.221.167-.49 0-.27-.075-.537-.167-.594-.099-.061-.167.137-.167.49m-9.5 1.01c0 .413.074.75.164.75.226 0 .39-.735.257-1.154-.19-.598-.421-.376-.421.404M0 15.981c0 1.246.042 1.492.241 1.416C.558 17.276.6 17 .5 15.698c-.135-1.76-.5-1.553-.5.283m102.577-.098c-.132.525.013 1.017.255.868.209-.129.215-.753.01-1.076-.119-.189-.177-.144-.265.208m-94.077.51c0 .135-.084.274-.186.308-.102.034-.156.209-.12.389.056.275.109.241.339-.214.153-.303.206-.581.12-.634-.084-.052-.153.016-.153.151m12.167.524c0 .777.245 1.034.358.375.09-.525-.018-1.125-.203-1.125-.086 0-.155.337-.155.75m81.615.208c-.087.151-.305 1.329-.275 1.48.012.059-.045.154-.126.21-.082.056-.269.364-.415.685-.696 1.518-.824 1.783-1.094 2.25-1.423 2.464-6.925 5.891-9.507 5.922-.428.005-1.032.329-1.032.555 0 .058.3.106.667.106.367 0 .667-.075.667-.166 0-.092.262-.167.583-.167.321 0 .583-.066.583-.147 0-.082.413-.199.917-.262s.917-.189.917-.279c0-.091.069-.122.155-.069.085.053.203.018.261-.076.059-.095.177-.129.262-.077.085.053.155.017.155-.08s.15-.177.333-.177c.184 0 .334-.075.334-.166 0-.092.142-.167.315-.167.174 0 .359-.113.412-.25.052-.137.202-.25.333-.25s.282-.117.337-.261c.055-.143.176-.213.268-.156.092.057.168.024.168-.073s.079-.177.175-.177c.096 0 .493-.337.883-.75.389-.412.789-.75.888-.75.099 0 .273-.225.387-.5.114-.275.319-.5.455-.5.145 0 .21-.097.157-.236-.05-.13.01-.275.133-.322.123-.047.273-.31.333-.583.06-.274.222-.541.36-.594.137-.052.21-.16.162-.238-.048-.079.059-.301.239-.494.181-.194.328-.547.328-.786 0-.238.07-.389.157-.336.086.053.16-.036.164-.199.017-.638.074-.878.207-.878.076 0 .139-.263.139-.584 0-.529-.206-.773-.385-.458m-94.348.513c-.251.407-.6 1.728-.499 1.891.067.109.043.144-.057.082-.095-.059-.262-.001-.37.129-.309.373.226.556 1.932.659.83.051 1.628.138 1.773.193.145.056.663.124 1.15.152 1.051.059 3.616.351 5.137.584 1.881.289 4.513.548 4.607.454.444-.444-.157-.699-1.647-.696-.849.001-1.618-.048-1.71-.109-.22-.146-1.945-.325-3.03-.314-.475.004-.911-.068-.969-.161-.057-.093-.545-.169-1.084-.169-.54 0-1.027-.075-1.084-.166-.056-.092-.543-.167-1.082-.167s-1.189-.08-1.445-.177c-.329-.125-.483-.125-.525 0-.076.229-.531.231-.531.003 0-.096-.094-.162-.208-.147-.69.09-.889-.357-.453-1.012.334-.503.517-1.167.322-1.167a.305.305 0 0 0-.227.138m21.899.612c0 .229.075.417.167.417.092 0 .167-.188.167-.417 0-.229-.075-.417-.167-.417-.092 0-.167.188-.167.417m-29.666.397c0 .183.075.38.166.436.092.057.167-.047.167-.23s-.075-.38-.167-.436c-.091-.057-.166.047-.166.23m20.674.103c-.004.69.167 1.265.345 1.155.233-.144.172-.975-.097-1.331-.233-.308-.245-.3-.248.176m59.707.055c-.022.288.104.345.922.422 1.038.098 1.621.172 4.113.52 3.069.429 3.801.461 4.167.183.307-.233.233-.253-.948-.258-.706-.003-1.329-.08-1.385-.172-.057-.092-.463-.167-.902-.167s-1.016-.072-1.282-.16c-.266-.089-1.158-.237-1.983-.329a48.216 48.216 0 0 1-2.088-.27c-.507-.088-.592-.056-.614.231m-51.123 1.112c-.061.412-.165.75-.229.75-.065 0-.301.393-.526.875-.225.481-.449.912-.498.958-.049.046-.234.346-.411.667-.177.321-.458.681-.625.801-.323.232-.414.699-.136.699a.167.167 0 0 0 .167-.167c0-.092.056-.148.125-.125.068.023.137-.025.152-.106a.47.47 0 0 1 .168-.25c.257-.187 1.055-1.328 1.055-1.508 0-.098.075-.178.166-.178.092 0 .167-.15.167-.333 0-.183.079-.333.177-.333.097 0 .134-.069.082-.153-.052-.084-.01-.18.094-.215s.189-.266.189-.514c0-.249.065-.452.146-.452.08 0 .145-.262.145-.583 0-.833-.274-.721-.408.167M.574 19.681c-.061.1-.028.265.074.367.136.136.185.088.185-.181 0-.403-.086-.465-.259-.186m.259 1.059c0 .235.075.427.167.427.092 0 .151.056.131.125-.083.289.638 1.815.99 2.096.21.168.34.374.287.459-.052.084-.015.153.082.153s.168.056.157.125c-.058.369.055.542.353.542.472 0 .414-.292-.167-.834-.275-.257-.5-.585-.5-.73 0-.145-.262-.674-.583-1.175-.321-.502-.583-1.024-.583-1.16 0-.137-.075-.295-.167-.351-.095-.059-.167.081-.167.323M76 23.641c0 .078.15.314.333.526.184.211.334.327.334.258 0-.07.217.106.483.391.266.284.562.517.657.517.096 0 .275.145.399.322.124.177.428.372.676.435.248.062.451.18.451.261 0 .082.113.149.25.149.138 0 .25.061.25.136 0 .152 1.159.637 1.367.572.073-.023.133.029.133.115 0 .086.357.203.792.259.435.056.922.173 1.081.26.159.087.436.158.615.158s.378.084.441.186c.07.113.427.156.918.108.453-.043.881 0 .981.1.216.216 2.839.281 2.839.07 0-.083.06-.113.133-.068.199.123.628-.19.473-.345-.074-.074-1.046-.137-2.162-.139-1.115-.003-2.14-.053-2.277-.112-.138-.058-.66-.155-1.16-.214-1.361-.16-6.007-2.237-6.007-2.685 0-.298-1.336-1.401-1.697-1.401-.166 0-.303.064-.303.141m-50.184 1.652c-.403.338-.883.775-1.066.969-.293.312-1.332.972-2.722 1.731-.598.327-2.041.828-2.403.835-.16.003-.292.08-.292.172 0 .092-.225.167-.5.167s-.5.063-.5.141c0 .077-.333.133-.741.125-.42-.009-.836.08-.959.207-.254.261 1.67.178 2.7-.117l1-.286c.23-.065.511-.192.625-.281.115-.09.209-.112.209-.048 0 .063.238-.055.53-.263.291-.207.476-.29.41-.182-.067.107.201.028.594-.176.394-.204.776-.464.849-.579a.491.491 0 0 1 .366-.208c.127 0 .443-.194.7-.43.257-.237.374-.382.259-.324-.115.059-.208.028-.208-.069 0-.098.225-.177.5-.177.355 0 .5-.08.5-.278 0-.153.045-.232.101-.176.126.126.625-.344.877-.828.316-.609-.056-.576-.829.075m-21.983.27c0 .283.298.526.792.647.48.118.476-.057-.011-.514-.439-.413-.781-.471-.781-.133M5.443 27c.191.323.43.5.676.5.228 0 .381.101.381.25 0 .137.115.25.256.25.141 0 .437.119.658.263.221.145.5.284.619.308.677.136 1.134.317 1.134.447 0 .082.15.149.333.149.183 0 .333.075.333.166 0 .092.225.167.5.167s.5.066.5.146c0 .081.6.158 1.334.171 1.241.023 1.985-.273.875-.348-.891-.06-1.128-.092-1.375-.186-1.023-.388-3.326-1.005-3.667-.982-.326.023-.362-.006-.167-.133.214-.139.208-.163-.041-.165-.161-.002-.292-.08-.292-.173 0-.094-.206-.262-.458-.373-.252-.112-.558-.298-.679-.413a.902.902 0 0 0-.542-.211c-.176 0-.321-.075-.321-.166a.172.172 0 0 0-.176-.167c-.097 0-.044.224.119.5m35.389 2.542c-.273.446-.331.841-.331 2.25-.001 1.027-.067 1.708-.168 1.708-.097 0-.166.556-.166 1.333 0 .778-.07 1.334-.167 1.334-.1 0-.167.666-.167 1.666 0 1-.066 1.667-.166 1.667-.096 0-.167.518-.167 1.221v1.221l-.542-.061a8.158 8.158 0 0 1-1.153-.243c-.623-.186-2.138.097-2.138.398 0 .072-.15.131-.334.131-.183 0-.333.075-.333.166 0 .092-.113.167-.25.167-.138 0-.25.075-.25.167 0 .091-.145.166-.322.166-.177 0-.37.15-.428.334a1.019 1.019 0 0 1-.428.506c-.177.095-.322.248-.322.34 0 .092-.15.329-.333.525-.184.197-.334.49-.334.65 0 .161-.075.339-.166.395-.092.057-.167.657-.167 1.334 0 .676.075 1.276.167 1.333.091.057.166.249.166.427 0 .177.075.323.167.323.092 0 .167.15.167.333 0 .184.063.334.14.334.077 0 .284.265.458.59.175.325.488.633.695.685.208.053.439.205.514.339.075.134.449.285.831.336.382.052.695.159.695.238 0 .234 3.075.173 3.545-.071 1.09-.566 2.622-1.987 2.622-2.434 0-.193.075-.35.166-.35.092 0 .167-.146.167-.323 0-.178.075-.37.167-.427.091-.057.166-.699.166-1.427 0-.771-.069-1.323-.166-1.323-.092 0-.167-.143-.167-.318 0-.473-.686-1.668-1.211-2.11l-.46-.388.627-.292c.345-.16.749-.427.897-.592.148-.165.392-.3.542-.3.149 0 .272-.062.272-.137 0-.076.33-.302.733-.504.404-.201.776-.477.828-.612.052-.136.247-.247.433-.247.187 0 .339-.066.339-.147 0-.081.131-.195.292-.253.531-.192 1.096-.572 1.244-.838a.554.554 0 0 1 .432-.262c.157 0 .379-.15.493-.333.115-.184.358-.334.54-.334.183 0 .332-.079.332-.176 0-.097.338-.325.75-.508.413-.182.751-.384.752-.448.001-.065.31-.265.686-.445.376-.181.721-.424.766-.542.045-.118.261-.214.481-.214.325 0 .398-.085.396-.458-.003-.495-.625-1.209-1.053-1.209-.142 0-.304-.075-.361-.166-.057-.092-.242-.167-.413-.167-.17 0-.334-.056-.365-.125-.072-.162-1.834-1.042-2.086-1.042-.105 0-.217-.056-.247-.125-.031-.068-.393-.284-.806-.478-2.312-1.089-2.757-1.308-2.833-1.395-.151-.174-2.244-1.003-2.532-1.002-.155 0-.328-.075-.385-.166-.182-.295-.413-.18-.751.375m16.085-.086c-.275.038-.572.139-.659.223-.087.085-.293.154-.458.154-.165 0-.3.075-.3.167 0 .092-.104.167-.231.167s-.541.318-.921.708c-2.731 2.804-1.76 7.392 1.819 8.593 1.256.422 4.666.126 4.666-.405 0-.126.132-.23.294-.23.444 0 1.455-.998 1.774-1.75.155-.366.353-.797.44-.956.982-1.791-1.145-6.294-2.972-6.294-.166 0-.374-.065-.461-.145-.186-.171-2.27-.333-2.991-.232m3.351 1.374c1.545.761 3.258 3.544 2.591 4.211a.76.76 0 0 0-.192.467c0 1.664-3.138 3.86-4.974 3.481-2.561-.529-3.813-1.756-3.984-3.901-.286-3.601 3.241-5.892 6.559-4.258m-15.182.927c4.673 2.221 6.081 2.949 6.076 3.145-.005.217-.899.817-5.995 4.02-1.146.72-2.595 1.643-3.22 2.049-1.636 1.066-1.589 1.234-1.116-3.971.104-1.146.213-2.421.243-2.833.03-.413.138-1.388.239-2.167.101-.779.185-1.473.186-1.542.003-.313.798-.025 3.587 1.299M63 39.5c0 .183-.075.333-.167.333-.091 0-.166.189-.166.419 0 .231-.066.549-.147.709-.261.515-.687 2.491-.687 3.191 0 .375-.075.681-.166.681-.092 0-.167.225-.167.5s-.075.5-.167.5c-.091 0-.166.263-.166.584 0 .32-.067.583-.149.583-.081 0-.19.244-.241.542-.156.912-.542 2.526-.674 2.815-.46 1.009.428 2.349 1.226 1.851.183-.114.559-.208.835-.208.277 0 .503-.06.503-.132 0-.14 1.67-.487 3.083-.641.458-.05.905-.159.992-.242.087-.084.364-.152.615-.152s.503-.075.56-.166c.056-.092.323-.167.593-.167.269 0 .49-.075.49-.167 0-.091.179-.166.399-.166 1.164 0 4.209-.773 4.334-1.1.174-.453-.212-1.4-.571-1.4-.072 0-.953-.825-1.958-1.834C70.199 44.825 69.31 44 69.23 44c-.081 0-.356-.263-.612-.583-.256-.321-.587-.584-.736-.584-.149 0-.225-.045-.169-.101.056-.056-.471-.638-1.171-1.292a92.32 92.32 0 0 1-1.81-1.732c-.656-.66-1.732-.79-1.732-.208m4.113 3.625c1.62 1.535 3.495 3.305 4.166 3.933 1.728 1.616 1.757 1.566-1.279 2.199-1.054.22-2.854.629-4 .909-1.146.279-2.598.619-3.227.756-.629.136-1.195.28-1.258.319-.56.346-.449-.412.759-5.166.698-2.745 1.306-5.16 1.35-5.367.144-.664.494-.422 3.489 2.417m-28.153-.306c4.407 1.61 4.115 6.921-.455 8.278-1.398.415-3.48-.206-4.469-1.332-2.32-2.642-.706-6.741 2.797-7.105a27.407 27.407 0 0 0 1.169-.136c.047-.013.478.119.958.295m17.582 8.264c-.115.13-.209.46-.209.733 0 .274-.071.542-.159.596-.087.054-.209.546-.271 1.093-.062.547-.178.995-.258.995-.08 0-.145.221-.145.49 0 .27-.067.532-.148.582-.082.05-.19.336-.241.635-.051.299-.172.918-.27 1.376a49.8 49.8 0 0 0-.368 2.042c-.105.665-.254 1.208-.332 1.208-.077 0-.141.263-.141.584 0 .32-.075.583-.167.583-.091 0-.166.386-.166.857v.857l1.943-.101c1.069-.055 2.022-.178 2.117-.273.095-.095.379-.173.63-.173s.503-.075.56-.167c.056-.092.317-.167.579-.167.262 0 .501-.074.532-.166.03-.091.393-.179.805-.194.413-.015.863-.087 1-.159.138-.073.7-.214 1.25-.315 1.732-.317 1.917-.367 1.917-.518 0-.081.258-.148.573-.148.316 0 .62-.075.677-.166.057-.092.286-.167.51-.167.98 0 .548-.919-1.206-2.567-.888-.834-1.712-1.629-1.832-1.766a62.114 62.114 0 0 0-1.91-1.965c-.126-.117-.716-.691-1.312-1.274-2.81-2.748-3.331-3.058-3.958-2.345m3.603 3.358c6.069 5.688 6.212 5.854 5.26 6.073-3.128.72-6.246 1.451-8.153 1.911-2.665.643-2.676.64-2.355-.687.131-.544.665-2.788 1.186-4.988.959-4.053 1.158-4.75 1.35-4.75.059 0 1.279 1.099 2.712 2.441m-17.851-.536c-.861.395-1.794 1.196-1.794 1.541 0 .12-.15.312-.333.426-.184.115-.334.34-.334.501 0 .162-.067.294-.148.294-.212 0-.406.779-.437 1.75-.028.902.245 2.25.455 2.25.072 0 .13.122.13.271 0 .319 1.682 1.954 2.412 2.344.804.43 3.991.464 4.755.051.321-.174.689-.37.818-.436.457-.233 1.642-1.486 1.756-1.855.063-.207.185-.375.271-.375.085 0 .155-.354.155-.787 0-.94-.331-.744-1.047.62-2.136 4.067-8.786 2.622-8.786-1.908 0-4.812 6.539-5.894 9.023-1.494.656 1.163.81 1.241.81.412 0-.372-.072-.677-.159-.677-.088 0-.208-.262-.269-.583-.06-.321-.163-.583-.229-.583s-.22-.188-.343-.417c-.123-.229-.304-.417-.403-.417-.099 0-.443-.225-.764-.5-.321-.274-.714-.508-.875-.52-.432-.032-.521-.055-.747-.199-.446-.283-3.096-.086-3.917.291M86.74 65.517c-.067.107-.323.141-.62.082a2.494 2.494 0 0 0-1.022.055c-1.191.362-2.022.595-2.126.595-.061.001-.167.057-.236.126-.069.069-.262.125-.43.125-.169 0-.306.075-.306.167 0 .091-.15.166-.333.166-.184 0-.334.075-.334.167 0 .092-.112.167-.25.167-.137 0-.25.079-.25.176 0 .097-.075.13-.166.074-.092-.057-.167-.024-.167.073s-.056.168-.125.157a.626.626 0 0 0-.25.021l-.25.076c-.426.12-.694.311-.614.44.051.082.008.149-.094.149-.103 0-.132.088-.066.195.079.129.032.161-.14.095-.147-.056-.502.078-.81.305-.302.223-.497.405-.433.405s-.187.275-.559.61c-.392.355-.637.707-.585.842.049.128.025.193-.054.144-.078-.048-.276.06-.44.242-.164.181-.233.329-.152.329.08 0-.021.117-.224.259-.204.143-.371.368-.371.5 0 .133-.056.241-.126.241-.114 0-.555.846-.651 1.25-.092.39-.503 1.42-.608 1.525-.063.062-.115.322-.115.576 0 .255-.075.509-.166.566-.092.056-.167.506-.167 1 0 .493-.075.943-.167 1-.091.056-.166.548-.166 1.093 0 .549.074.99.166.99.093 0 .167.441.167.99 0 .545.075 1.037.167 1.093.091.057.166.286.166.51 0 .224.075.407.167.407.092 0 .167.186.167.413 0 .534.497 1.799.773 1.966.117.072.17.24.119.375-.052.135-.012.246.09.246.101 0 .184.112.184.25s.075.25.167.25c.092 0 .167.112.167.25s.071.25.159.25c.087 0 .282.26.433.578.15.318.323.571.382.563.32-.041.534.044.45.18-.142.229 1.474 1.846 1.844 1.846.175 0 .412.15.526.333.115.183.279.333.366.333.087 0 .345.188.575.417.229.229.607.417.84.417.234 0 .425.056.426.125.002.169.826.541 1.199.541.165 0 .3.067.3.148 0 .081.243.197.541.256 1.913.384 5.523.538 5.42.232-.049-.146-.4-.222-1.059-.229-2.284-.024-4.357-.546-6.637-1.672-1.877-.927-2.102-1.071-2.866-1.836-.376-.376-.92-.824-1.208-.994-.289-.17-.525-.407-.525-.525 0-.118-.322-.683-.716-1.255a12.34 12.34 0 0 1-1.876-4.446c-.142-.681-.301-1.307-.353-1.392-.145-.235-.063-3.136.105-3.703.082-.275.238-.913.348-1.417.215-.985 1.538-3.859 1.924-4.179.129-.108.235-.29.235-.405 0-.115.244-.396.542-.625.298-.228.936-.798 1.418-1.266.483-.468 1.088-.961 1.346-1.094.257-.133.566-.36.685-.503.119-.144.339-.262.488-.262.149 0 .64-.188 1.091-.417.451-.228.942-.416 1.092-.416.149 0 .343-.069.43-.153.359-.349 2.882-.708 4.991-.71 3.139-.003 5.657.625 7.713 1.923.384.242.74.44.791.44.051 0 .259.155.462.345.202.189.61.46.907.601.296.141.746.517 1 .835.253.318.704.854 1.002 1.19.298.337.729.995.958 1.461.229.467.565.983.746 1.147.182.165.296.355.254.423-.112.181.422 1.665.6 1.665.083 0 .151-.187.151-.417 0-.229-.073-.416-.162-.416-.089 0-.12-.107-.07-.237.049-.13-.028-.417-.173-.638-.145-.221-.213-.452-.151-.514.061-.061.04-.111-.048-.111-.087 0-.171-.168-.187-.373-.015-.205-.106-.399-.202-.43-.096-.032-.174-.193-.174-.358 0-.165-.158-.342-.35-.392-.193-.05-.301-.171-.24-.269.06-.098.026-.178-.077-.178-.102 0-.14-.075-.083-.167.057-.092.028-.167-.064-.167s-.3-.225-.463-.5c-.162-.275-.354-.5-.426-.5-.206 0-.78-.628-.672-.736.053-.053-.032-.097-.19-.097-.183 0-.244-.076-.168-.208.066-.115.062-.157-.009-.093s-.314-.105-.541-.375c-.227-.27-.519-.491-.648-.491-.13 0-.236-.075-.236-.166 0-.092-.125-.167-.277-.167-.153 0-.229-.05-.168-.11.115-.115-1.146-.757-1.513-.771-.115-.004-.208-.056-.208-.116 0-.059-.263-.21-.584-.336-.32-.126-.583-.29-.583-.365 0-.074-.258-.135-.573-.135-.316 0-.615-.067-.666-.149-.113-.184-1.139-.376-1.962-.367-.34.004-.663-.066-.718-.155-.142-.23-3.698-.211-3.841.021m-73.281.576c-.068.07-.457.115-.865.1-.407-.016-.786.047-.843.139-.057.093-.25.168-.428.168-.177 0-.323.075-.323.167 0 .091-.187.166-.417.166-.229 0-.416.08-.416.177 0 .097-.069.134-.154.082-.084-.052-.271.023-.415.167-.144.144-.331.22-.414.168-.194-.12-1.509.557-1.892.974-.161.174-.294.249-.298.166-.003-.083-.136 0-.297.183-.161.183-.398.357-.529.386-.13.03-.484.292-.786.584-.303.291-.756.724-1.008.962-.527.498-.977 1.27-.828 1.42.056.056.545-.338 1.086-.875 1.069-1.062 2.203-2.06 2.339-2.06.047 0 .204-.105.349-.233.403-.356 2.549-1.434 2.854-1.434.149 0 .322-.051.385-.114.183-.183 1.324-.547 1.723-.55.201-.002.408-.072.46-.156.188-.305 5.73-.085 7.032.279 1.267.353 3.352 1.242 4.085 1.74.243.166.512.301.596.301.084 0 .33.188.545.417.215.229.48.416.589.416.564 0 2.965 3.047 3.923 4.979.307.62.485.828.579.676.08-.129.055-.245-.061-.284-.108-.036-.197-.214-.197-.395 0-.485-.676-1.976-.896-1.976-.104 0-.288-.222-.408-.495-.244-.55-1.693-2.229-1.817-2.105-.044.043-.36-.216-.703-.577-.343-.361-.699-.656-.791-.656-.091 0-.302-.15-.468-.333-.166-.184-.406-.334-.533-.334s-.397-.158-.599-.351c-.447-.427-1.756-1.019-1.966-.889-.084.051-.152.014-.152-.083s-.185-.177-.412-.177c-.226 0-.657-.137-.958-.306-.301-.168-.659-.32-.797-.337-.968-.12-5.774-.199-5.874-.097M2.724 72.918c-.218.469-.045.546.347.153.315-.315.34-.571.054-.57-.115.001-.295.189-.401.417m11.526 1.224c-1.283.431-2.432.846-2.552.921-.12.075-.454.173-.743.219-.288.045-.828.216-1.198.378-.371.163-.992.393-1.382.512-.727.22-.97.692-.458.888.152.059.25.001.25-.149 0-.134.131-.245.291-.245.161 0 .55-.158.865-.35.315-.192.822-.349 1.125-.349.304 0 .552-.068.552-.15 0-.083.112-.15.25-.15.137 0 .25-.065.25-.144 0-.079.188-.123.417-.098.229.025.416-.023.416-.106 0-.084.219-.152.486-.152.268 0 .515-.085.55-.189.034-.104.303-.198.596-.209.294-.01.534-.075.535-.144 0-.069.219-.125.486-.125s.511-.066.542-.147c.114-.302 1.411-.39 1.687-.114.144.144.378.261.522.261.143 0 .354.15.468.333.115.184.269.334.342.334.127 0 .334.149.864.625a.889.889 0 0 0 .504.208c.163 0 .224.077.152.192-.073.12-.045.148.074.074.117-.072.192-.006.192.169 0 .158.047.24.104.183.058-.057.243.062.411.264.169.202.31.309.313.237.008-.196.672.198.672.399 0 .29.457.649.825.649.211 0 .425.165.539.416.184.405.97.617.97.262 0-.268-.511-.678-.846-.678-.176 0-.321-.064-.321-.141 0-.223-.602-.859-.813-.859-.104 0-.425-.225-.713-.5s-.662-.5-.832-.5c-.17 0-.31-.094-.312-.209-.002-.114-.34-.433-.75-.708-.41-.275-.746-.556-.746-.625-.001-.069-.143-.125-.316-.125-.174 0-.357-.108-.408-.24-.105-.276-.704-.683-1.193-.814-.184-.049-1.384.264-2.667.696m77.5-.453c-.275.088-1.044.165-1.71.171-.665.006-1.251.077-1.301.159-.051.081-.65.148-1.332.148-.815 0-1.24.065-1.24.189 0 .129-.244.156-.767.084-.814-.111-1.567.003-1.567.238 0 .197 3.3.177 3.422-.02.054-.087.694-.158 1.422-.158.771 0 1.323-.07 1.323-.167 0-.098.611-.166 1.5-.166 1.222 0 1.5-.047 1.5-.25 0-.138-.069-.25-.153-.25-.084 0-.253-.031-.375-.069-.122-.038-.447.003-.722.091m1.739.124c.355.099.412.226.465 1.025.034.502.106 1.024.161 1.162.055.137.128.55.161.917l.158 1.708c.052.573.164 1.042.247 1.042.084 0 .152.45.152 1 0 .583.073 1 .174 1 .11 0 .156.445.125 1.198l-.049 1.198-.789.272c-.435.15-.841.323-.903.385-.062.062-.282.113-.488.113-.206 0-.413.094-.46.209-.063.156-.128.146-.261-.042-.12-.169-.178-.183-.179-.042-.002.115-.059.196-.128.181-.25-.057-1.381.236-1.47.38-.05.081-.268.148-.484.148-.216 0-.42.079-.452.176-.033.098-.304.184-.603.193-.3.008-.584.079-.632.156-.048.078-.27.141-.494.141-.224 0-.407.08-.407.177 0 .097-.067.135-.149.084-.082-.05-.408.017-.725.149-.632.264-.959.113-.959-.443 0-.165-.075-.3-.167-.3-.091 0-.166-.146-.166-.323 0-.178-.075-.37-.167-.427-.092-.057-.167-.249-.167-.427 0-.177-.083-.323-.184-.323-.102 0-.141-.113-.088-.251.053-.139.011-.457-.093-.709a4.181 4.181 0 0 1-.204-.568.52.52 0 0 0-.139-.236c-.069-.069-.125-.3-.125-.514 0-.214-.075-.389-.167-.389-.091 0-.166-.15-.166-.333 0-.183-.075-.333-.167-.333-.092 0-.167-.146-.167-.324 0-.178-.075-.37-.166-.426-.092-.057-.167-.282-.167-.5 0-.219-.08-.447-.178-.507-.098-.061-.137-.217-.088-.346.05-.13-.057-.479-.238-.775-.18-.297-.328-.708-.329-.914 0-.206-.067-.375-.148-.375-.126 0-.341-.457-.413-.881-.013-.072-.11-.185-.217-.251-.412-.255.188-.679 1.038-.733.597-.037.823-.12.823-.302 0-.155-.127-.231-.333-.201-.184.027-.671.089-1.084.138-1.195.143-1.185.129-.739 1.053.223.463.406.956.406 1.095s.159.608.353 1.042c.665 1.49.783 1.792 1.032 2.639.136.468.431 1.255.655 1.75.224.496.543 1.313.711 1.818 1.299 3.917.848 3.674 4.512 2.437 3.347-1.13 3.976-1.337 4.904-1.61.412-.121.825-.274.916-.338.092-.065.415-.171.718-.235l.551-.118-.104-.86a85.526 85.526 0 0 0-.267-1.943l-.337-2.25a73 73 0 0 1-.233-1.667c-.05-.432-.137-1.013-.486-3.25a19.962 19.962 0 0 1-.078-.541c-.008-.069-.295-.118-.639-.109-.52.014-.557.036-.219.13m-91.331.312c-.431.503-.882 1.986-.649 2.131.087.053.158-.095.158-.329 0-.235.083-.427.185-.427.112 0 .156-.2.112-.5-.047-.321-.001-.5.129-.5.111 0 .241-.15.289-.333.106-.407.091-.41-.224-.042m28.009 1.948c0 .133.07.284.156.337.086.054.145-.054.131-.24-.028-.38-.287-.467-.287-.097m72.833.413c0 .472.18.859.351.753.26-.161.175-1.072-.101-1.072-.138 0-.25.144-.25.319m-72.553.306c-.039.068-.012.275.062.458.149.37.182.341.24-.208.037-.359-.149-.514-.302-.25M8.094 77.796c.123.567.425 1.219.698 1.508.114.121.208.298.208.394 0 .096.225.431.5.744s.5.646.5.74c0 .093.225.409.499.702.275.293.5.61.5.704.001.15.58.745.725.745.03 0 .054-.112.054-.25 0-.137-.063-.25-.139-.25-.076 0-.139-.103-.139-.23s-.16-.273-.355-.324c-.217-.056-.32-.183-.266-.325.049-.128-.128-.466-.395-.751-.266-.285-.484-.597-.484-.694a.176.176 0 0 0-.177-.176c-.097 0-.133-.069-.081-.153.052-.084-.024-.272-.169-.417-.145-.144-.208-.263-.139-.263.068 0-.02-.169-.197-.375-.429-.502-.737-1.068-.737-1.355 0-.129-.113-.278-.252-.331-.2-.077-.232-.002-.154.357m-7.261.371c0 .275.075.5.167.5.092 0 .167-.225.167-.5s-.075-.5-.167-.5c-.092 0-.167.225-.167.5m29.863-.119c-.144.174-.135.305.036.538.216.296.231.293.347-.072.149-.469-.114-.79-.383-.466m72.688.088c-.443.275-.34 2.364.116 2.364.301 0 .333-.111.333-1.157 0-1.153-.101-1.423-.449-1.207m-79.449 1.433c-.051.202-.282.589-.514.858a6.367 6.367 0 0 0-.683.99c-.463.883-.648 1.157-1.114 1.649-.252.265-.457.587-.457.714s-.113.274-.25.326a.426.426 0 0 0-.25.371c0 .151-.226.487-.501.747s-.462.534-.416.61c.047.076-.009.176-.124.222-.138.056-.12.089.053.098.369.018 2.154-2.181 2.154-2.654 0-.092.063-.167.141-.167.077 0 .339-.365.582-.812.243-.446.55-.902.684-1.012.742-.617 1.484-2.191 1.066-2.262-.171-.029-.314.096-.371.322m79.173 2.435c-.111.552-.032.829.235.829.194 0 .203-.836.011-1.138-.099-.156-.172-.065-.246.309M.833 82.167c0 .275.075.5.167.5.092 0 .167-.225.167-.5s-.075-.5-.167-.5c-.092 0-.167.225-.167.5m29.953-.231c-.168.168-.149.693.03.803.082.051.184-.001.227-.115.104-.278-.105-.84-.257-.688m71.795 2.106c-.167.573-.427 1.191-.576 1.375-.15.183-.418.633-.597 1-.38.78-3.174 3.621-3.954 4.021-.296.151-.575.324-.621.383-.094.122-1.541.835-2.666 1.313-.854.362-2.667.801-3.959.958-.481.058-.875.166-.875.24 0 .196 1.548.304 1.785.125.111-.084.423-.105.693-.045.284.062.537.033.6-.069.06-.097.252-.176.427-.176s.586-.15.912-.334c.326-.183.779-.333 1.005-.333.226 0 .412-.075.412-.167 0-.091.103-.166.229-.166.322 0 1.771-.83 1.771-1.015 0-.083.142-.152.315-.152.174 0 .359-.112.412-.25.052-.138.205-.25.338-.25.133 0 .459-.206.723-.458.264-.252.807-.74 1.206-1.084.399-.343.666-.625.593-.625-.073 0 .065-.197.307-.439.241-.242.439-.544.439-.672s.107-.273.237-.323c.338-.13.829-1.232.791-1.774-.022-.297.049-.458.2-.458.255 0 .433-.493.436-1.209.004-.776-.263-.509-.583.584M1.074 83.348c-.061.1-.028.265.074.367.136.136.185.088.185-.182 0-.402-.086-.464-.259-.185m11.047.61c.51.792.941 1.235 1.616 1.666.863.55 1.041.694 1.646 1.334.281.298.576.542.655.542.079 0 .331.188.56.417.23.229.556.416.725.416.169 0 .351.113.404.25.188.491.591.235 1.196-.759.337-.556.578-1.045.536-1.088-.154-.154-.626.139-.626.388 0 .141-.131.352-.291.469-.161.117-.292.313-.292.435 0 .389-.531.239-1.15-.324-.33-.3-.6-.495-.6-.434 0 .062-.175-.068-.388-.287-.608-.625-1.075-.965-1.181-.858-.054.053-.098-.04-.098-.208 0-.168-.043-.263-.096-.21-.053.053-.535-.347-1.072-.889-.537-.541-1.056-.985-1.154-.985-.098 0-.178-.075-.178-.166 0-.092-.114-.167-.254-.167-.217 0-.211.066.042.458m18.167.476c-.067.067-.121.237-.121.377 0 .188.049.206.185.07.102-.102.157-.271.122-.377-.036-.105-.119-.137-.186-.07m-28.783.524c.019.444.495.755.495.324 0-.288-.09-.449-.25-.449-.137 0-.248.057-.245.125m27.871 1.287c-.297.589-.481 1.107-.409 1.152.246.151.493-.144.75-.897.141-.413.308-.881.371-1.042.293-.745-.23-.167-.712.787M2 86.21c0 .115.15.303.333.418.184.114.334.353.334.53 0 .177.076.369.169.427.093.058.126.175.074.26-.053.085.025.155.173.155.149 0 .224.075.167.167-.057.091-.024.166.073.166.098 0 .177.113.177.25 0 .138.112.25.25.25.408 0 .293-.308-.512-1.366-.419-.551-.802-1.107-.851-1.235-.111-.289-.387-.305-.387-.022m26.393 1.752c-.197.158-.408.457-.47.663-.062.206-.17.375-.24.375-.07 0-.464.319-.874.708-1.452 1.378-1.922 1.727-3.234 2.399-2.464 1.262-5.025 1.87-7.658 1.816-2.877-.058-5.697-.729-7.165-1.704-.457-.304-.926-.552-1.041-.552-.116 0-.211-.07-.211-.156 0-.085-.16-.206-.355-.268-.196-.062-.777-.544-1.293-1.07-1.067-1.092-1.801-1.468-1.595-.818.107.338.465.727 1.338 1.458.124.103.298.187.389.187.09 0 .281.167.423.37.143.204.262.298.265.209.003-.089.08-.034.171.122.101.174.272.244.439.18.182-.07.233-.04.152.091-.077.124.003.195.223.195.189 0 .343.075.343.166 0 .092.15.167.333.167.184 0 .334.075.334.167 0 .091.106.166.236.166s.264.085.298.188c.035.103.265.187.511.187.247 0 .408.066.358.146-.049.08-.066.151-.038.156.028.006.389.049.801.095.413.046.775.154.806.24.03.085.305.155.611.155s.585.09.622.199c.095.284 6.259.295 6.435.011.067-.11.364-.218.658-.24.294-.023.535-.1.535-.172 0-.072.267-.131.594-.131.327 0 .758-.09.959-.201.2-.11.473-.218.607-.24.263-.043 1.039-.418 1.173-.568.046-.051.369-.225.719-.388.349-.162.675-.399.723-.526.049-.127.243-.28.431-.34.299-.095 1.437-1.182 2.579-2.465.318-.357.699-1.279.525-1.269-.033.002-.221.134-.417.292" fill="#85bcec"/></g></svg>